<?xml version="1.0" standalone="no"?>
<!DOCTYPE svg PUBLIC "-//W3C//DTD SVG 1.1//EN" "http://www.w3.org/Graphics/SVG/1.1/DTD/svg11.dtd" >
<svg xmlns="http://www.w3.org/2000/svg">
<metadata>Generated by IcoMoon</metadata>
<defs>
<font id="icomoon" horiz-adv-x="1024">
<font-face units-per-em="1024" ascent="960" descent="-64" />
<missing-glyph horiz-adv-x="1024" />
<glyph unicode="&#x20;" horiz-adv-x="512" d="" />
<glyph unicode="&#xe900;" glyph-name="visibility_off" d="M506 554.667h6c70 0 128-58 128-128v-8zM322 520.667c-14-28-24-60-24-94 0-118 96-214 214-214 34 0 66 10 94 24l-66 66c-8-2-18-4-28-4-70 0-128 58-128 128 0 10 2 20 4 28zM86 756.667l54 54 756-756-54-54c-47.968 47.365-96.266 94.401-144 142-58-24-120-36-186-36-214 0-396 132-470 320 34 84 90 156 160 212-39.017 38.983-77.307 78.693-116 118zM512 640.667c-28 0-54-6-78-16l-92 92c52 20 110 30 170 30 214 0 394-132 468-320-32-80-82-148-146-202l-124 124c10 24 16 50 16 78 0 118-96 214-214 214z" />
<glyph unicode="&#xe901;" glyph-name="visibility" d="M512 554.667c70 0 128-58 128-128s-58-128-128-128-128 58-128 128 58 128 128 128zM512 212.667c118 0 214 96 214 214s-96 214-214 214-214-96-214-214 96-214 214-214zM512 746.667c214 0 396-132 470-320-74-188-256-320-470-320s-396 132-470 320c74 188 256 320 470 320z" />
<glyph unicode="&#xe902;" glyph-name="trunks" d="M786.319 852.48h-441.221c-10.153 20.48-28.124 29.501-48.66 29.501-31.718 0-57.436-24.479-57.436-56.202s25.713-57.861 57.436-57.861c23.281 0 43.279 18.002 52.296 33.362h437.581c59.622 0 104.566-46.403 104.566-106.010v-520.34c0-59.607-44.928-110.93-104.53-110.93h-520.34c-59.602 0-112.41 51.338-112.41 110.961v383.524c20.48 9.021 35.948 29.020 35.948 52.301 0 31.718-24.637 57.436-56.356 57.436s-57.626-25.713-57.626-57.436c0-20.536 11.479-38.508 26.839-48.66v-387.164c-0.005-89.431 74.194-167.281 163.604-167.281h520.34c89.411 0 160.85 77.839 160.85 167.25v520.34c0 89.411-71.455 157.21-160.881 157.21zM375.839 358.82c-2.934-2.099-6.38-3.697-10.24-4.726-9.062-2.417-18.77-1.93-26.506-0.241-4.183 0.911-8.248 2.35-12.088 4.265-3.901 1.951-7.834 4.511-11.684 7.613-4.060 3.261-8.458 7.148-13.087 11.587-2.627 2.493-6.753 2.493-9.364-0.026l-26.112-25.18c-1.3-1.254-2.048-2.985-2.068-4.803-0.010-1.812 0.701-3.548 1.981-4.828 12.349-12.355 25.539-21.658 39.204-27.674 13.737-6.047 29.553-9.119 47.007-9.119 9.462 0 19.297 1.336 29.23 3.958 10.173 2.678 19.584 7.045 27.981 12.974 8.55 6.057 15.59 13.839 20.925 23.148 5.437 9.492 8.197 20.972 8.197 34.13 0 12.052-2.304 22.477-6.856 31.002-4.46 8.356-10.383 15.493-17.608 21.222-6.984 5.545-14.884 10.204-23.485 13.834-8.212 3.471-16.532 6.625-24.74 9.354-4.296 1.439-8.689 2.97-13.189 4.603-4.106 1.49-7.91 3.323-11.325 5.437-3.159 1.981-5.719 4.168-7.608 6.559-1.418 1.782-2.115 4.009-2.115 6.82 0 6.083 2.053 10.358 6.441 13.435 5.11 3.564 11.361 5.304 19.128 5.304 7.47 0 14.884-1.674 22.036-4.977 7.429-3.43 13.778-7.455 18.857-11.971 1.382-1.224 3.195-1.843 5.023-1.69 1.833 0.143 3.523 1.029 4.695 2.452l22.687 27.658c1.172 1.428 1.71 3.277 1.485 5.11s-1.188 3.502-2.673 4.593c-11.044 8.233-22.651 14.607-34.499 18.949-11.981 4.403-25.375 6.641-39.788 6.641-9.533 0-18.867-1.362-27.74-4.014-9.068-2.729-17.188-6.892-24.151-12.349-7.066-5.571-12.81-12.662-17.075-21.064-4.296-8.484-6.482-18.555-6.482-29.947 0-10.373 2.038-19.528 6.062-27.223 3.927-7.501 9.134-13.988 15.478-19.297 6.134-5.135 13.123-9.528 20.767-13.066 7.26-3.379 14.694-6.482 22.098-9.226 5.56-2.058 11.034-4.122 16.399-6.19 4.91-1.889 9.339-4.122 13.158-6.641 3.466-2.284 6.221-4.936 8.197-7.89 1.751-2.616 2.596-5.77 2.596-9.626 0-4.434-0.824-8.218-2.452-11.254-1.705-3.128-3.891-5.637-6.697-7.629zM668.124 304.64c3.732 0 7.716 7.624 7.716 11.361v70.559h21.187c9.62 0 19.528 4.731 29.481 7.24 10.163 2.57 19.533 8.504 27.822 14.218 8.474 5.842 15.478 14.397 20.823 23.731 5.437 9.503 8.197 21.519 8.197 34.877 0 3.348-0.169 6.861-0.512 9.974-1.029 9.329-3.604 17.659-7.695 24.704-4.014 6.927-8.96 12.984-14.756 18.022-1.925 1.674-3.948 3.267-6.057 4.716-8.289 5.714-17.659 7.281-27.822 9.856-9.953 2.504-19.86 1.142-29.481 1.142h-67.451c-3.722 0-10.051 2.273-10.051-1.459v-217.58c0-3.732 6.328-11.361 10.051-11.361h38.548zM675.84 494.080h22.252c10.281 0 18.278 0.369 24.428-4.762 5.78-4.803 8.591-9.83 8.591-18.58 0-4.854-0.87-8.3-2.611-11.535-1.731-3.22-4.106-5.422-7.26-7.393-3.441-2.15-7.598-5.053-12.375-6.026-5.135-1.044-10.849-2.903-16.983-2.903h-16.041v51.2zM547.84 528.287c0 3.732-3.026 6.753-6.758 6.753h-42.803c-3.732 0-6.758-3.026-6.758-6.753v-216.888c0-3.732 3.026-6.753 6.758-6.753h42.803c3.732 0 6.758 3.026 6.758 6.753v216.888z" />
<glyph unicode="&#xe903;" glyph-name="usage" d="M562.549 865.882c-6.723 0.934-13.446-0.934-19.209-5.603-4.802-4.669-7.683-11.206-7.683-17.743v-141.948c0-11.206 8.644-20.545 19.209-23.347 114.292-19.611 196.889-115.8 196.889-228.798 0-27.082-4.802-53.23-13.446-78.445-3.842-10.273 0.96-22.413 10.565-28.016l125.817-70.974c5.763-3.735 13.446-3.735 19.209-1.868 6.723 1.868 11.525 6.537 14.407 13.074 24.011 53.23 35.536 108.329 35.536 166.229 0 212.922-164.234 392.225-381.293 417.439zM874.69 325.172l-85.479 48.561c6.723 24.281 10.565 49.495 10.565 74.709 0 128.874-89.32 240.004-216.098 270.822v96.188c179.601-33.619 312.141-186.774 312.141-367.010 0-42.024-6.723-83.114-21.13-123.271zM511.646 28.202c-238.188 0-432.196 188.641-432.196 420.241 0 212.922 164.234 392.225 381.293 417.439 7.683 0.934 14.407-0.934 19.209-5.603s7.683-11.206 7.683-17.743v-141.014c0-11.206-7.683-21.479-19.209-23.347-114.292-20.545-196.889-116.734-196.889-229.732 0-128.874 107.569-233.467 240.109-233.467 70.112 0 136.382 29.884 182.483 83.114 7.683 8.405 21.13 10.273 30.734 4.669l125.817-70.974c5.763-3.735 10.565-9.339 11.525-15.876 1.921-6.537 0-13.074-3.842-18.677-82.597-107.395-209.375-169.030-346.717-169.030zM439.613 815.453c-179.601-33.619-312.141-186.774-312.141-367.010 0-206.385 171.918-373.547 384.174-373.547 113.331 0 218.019 46.693 291.012 129.808l-85.479 47.627c-53.784-53.23-127.738-84.048-205.533-84.048-158.472 0-288.13 126.072-288.13 280.16 0 128.874 89.32 240.004 216.098 270.822v96.188z" />
<glyph unicode="&#xe904;" glyph-name="endpoints" d="M875.154 107.52v-35.84h-726.674v35.84h726.674zM875.154 71.68h-726.674c-23.893 0-23.893 35.84 0 35.84h726.674c23.893 0 23.893-35.84 0-35.84zM650.849 107.672h206.385v164.436h-206.385v-164.436zM632.929 307.948h242.225c9.897 0 17.92-8.023 17.92-17.92v-200.276c0-9.897-8.023-17.92-17.92-17.92h-242.225c-9.897 0-17.92 8.023-17.92 17.92v200.276c0 9.897 8.023 17.92 17.92 17.92zM408.625 107.672h206.385v164.436h-206.385v-164.436zM390.705 307.948h242.225c9.897 0 17.92-8.023 17.92-17.92v-200.276c0-9.897-8.023-17.92-17.92-17.92h-242.225c-9.897 0-17.92 8.023-17.92 17.92v200.276c0 9.897 8.023 17.92 17.92 17.92zM166.4 107.672h206.385v164.436h-206.385v-164.436zM148.48 307.948h242.225c9.897 0 17.92-8.023 17.92-17.92v-200.276c0-9.897-8.023-17.92-17.92-17.92h-242.225c-9.897 0-17.92 8.023-17.92 17.92v200.276c0 9.897 8.023 17.92 17.92 17.92zM650.849 307.948h206.385v164.436h-206.385v-164.436zM632.929 508.224h242.225c9.897 0 17.92-8.023 17.92-17.92v-200.276c0-9.897-8.023-17.92-17.92-17.92h-242.225c-9.897 0-17.92 8.023-17.92 17.92v200.276c0 9.897 8.023 17.92 17.92 17.92zM408.625 307.948h206.385v164.436h-206.385v-164.436zM390.705 508.224h242.225c9.897 0 17.92-8.023 17.92-17.92v-200.276c0-9.897-8.023-17.92-17.92-17.92h-242.225c-9.897 0-17.92 8.023-17.92 17.92v200.276c0 9.897 8.023 17.92 17.92 17.92zM166.4 307.948h206.385v164.436h-206.385v-164.436zM148.48 508.224h242.225c9.897 0 17.92-8.023 17.92-17.92v-200.276c0-9.897-8.023-17.92-17.92-17.92h-242.225c-9.897 0-17.92 8.023-17.92 17.92v200.276c0 9.897 8.023 17.92 17.92 17.92zM650.849 508.224h206.385v164.436h-206.385v-164.436zM632.929 708.5h242.225c9.897 0 17.92-8.023 17.92-17.92v-200.276c0-9.897-8.023-17.92-17.92-17.92h-242.225c-9.897 0-17.92 8.023-17.92 17.92v200.276c0 9.897 8.023 17.92 17.92 17.92zM408.625 672.66v-164.436h206.385v164.436h-206.385zM390.705 708.5h242.225c9.897 0 17.92-8.023 17.92-17.92v-200.276c0-9.897-8.023-17.92-17.92-17.92h-242.225c-9.897 0-17.92 8.023-17.92 17.92v200.276c0 9.897 8.023 17.92 17.92 17.92zM166.4 508.224h206.385v164.436h-206.385v-164.436zM148.48 708.5h242.225c9.897 0 17.92-8.023 17.92-17.92v-200.276c0-9.897-8.023-17.92-17.92-17.92h-242.225c-9.897 0-17.92 8.023-17.92 17.92v200.276c0 9.897 8.023 17.92 17.92 17.92zM145.92 785.92c-9.897 0-17.92 8.023-17.92 17.92s8.023 17.92 17.92 17.92h732.16c9.897 0 17.92-8.023 17.92-17.92s-8.023-17.92-17.92-17.92h-732.16z" />
<glyph unicode="&#xe905;" glyph-name="info1" d="M512 960c-282.317 0-512-229.686-512-512.003s229.683-511.997 512-511.997c282.317 0 512 229.68 512 511.997s-229.683 512.003-512 512.003zM512 29.091c-230.99 0-418.909 187.92-418.909 418.906s187.92 418.912 418.909 418.912c230.99 0 418.909-187.926 418.909-418.912s-187.923-418.906-418.909-418.906zM511.994 742.788c-34.214 0-62.048-27.853-62.048-62.089 0-34.205 27.834-62.033 62.048-62.033s62.048 27.828 62.048 62.033c0 34.236-27.834 62.089-62.048 62.089zM512 525.576c-25.706 0-46.545-20.84-46.545-46.545v-279.273c0-25.706 20.84-46.545 46.545-46.545s46.545 20.84 46.545 46.545v279.273c0 25.706-20.84 46.545-46.545 46.545z" />
<glyph unicode="&#xe906;" glyph-name="alert" horiz-adv-x="1103" d="M552.487 622.823c21.039 0 35.848-14.628 35.848-35.586v-223.961c0-20.959-14.809-35.586-35.848-35.586-21.508 0-39.178 14.925-39.178 35.586v223.961c0 20.663 17.671 35.586 39.178 35.586zM552.487 607.069c-13.341 0-23.424-8.516-23.424-19.833v-223.961c0-11.316 10.083-19.833 23.424-19.833 12.381 0 20.094 7.618 20.094 19.833v223.961c0 12.214-7.713 19.833-20.094 19.833zM554.463 162.298c-28.277 0-51.2 22.923-51.2 51.2s22.923 51.2 51.2 51.2c28.277 0 51.2-22.923 51.2-51.2s-22.923-51.2-51.2-51.2zM554.463 185.928c15.226 0 27.569 12.343 27.569 27.569s-12.343 27.569-27.569 27.569c-15.226 0-27.569-12.343-27.569-27.569s12.343-27.569 27.569-27.569zM1006.854 90.789c-23.982-47.826-71.713-76.386-129.292-76.386h-655.703c-53.994 0-106.133 30.19-128.925 75.734-29.389 46.892-29.389 105.557-0.156 152.189l328.007 571.049c29.732 47.437 77.023 75.733 128.925 75.733 53.994 0 106.133-30.19 129.081-75.993l327.777-570.659c29.307-46.87 29.28-105.47 0.285-151.666zM993.138 234.219l-328.219 571.442c-20.408 40.707-67.013 67.693-115.209 67.693-46.265 0-88.625-25.347-115.421-68.086l-328.007-571.049c-26.182-41.775-26.182-93.941 0.367-136.369 20.408-40.707 67.013-67.693 115.209-67.693h655.703c51.701 0 93.938 25.273 115.577 68.346 26.182 41.775 26.182 93.941 0 135.716zM948.047 119.417c15.731 26.34 15.731 56.466 0.481 81.815l-327.77 570.651c-15.53 25.811-41.001 40.517-71.047 40.517-30.511 0-55.152-15.017-65.406-40.38l-327.932-570.929c-15.166-25.211-15.166-55.335 0-80.546 15.146-25.177 40.316-40.517 65.487-40.517h661.262c30.511 0 55.152 15.017 64.926 39.388zM883.121 64.274h-661.262c-30.905 0-61.086 18.394-78.986 48.15-18.172 30.208-18.172 66.58-0.081 96.65l327.371 569.801c12.287 30.638 42.873 49.278 79.548 49.278 35.627 0 66.193-17.648 84.627-48.287l327.77-570.651c18.068-30.029 18.175-66.152 0.322-96.253-12.442-30.287-42.87-48.688-79.308-48.688z" />
<glyph unicode="&#xe907;" glyph-name="voice-applications" d="M875.52 782.72l-719.903-0.22c-1.838 0.108-3.666 0.169-5.437 0.169-6.088 0-14.879-0.712-20.838-6.902-4.716-4.89-6.461-12.145-6.461-21.975v-610.422c0-19.538 11.223-25.62 30.776-25.62l715.3 0.020c23.721 0.317 32.164 10.952 32.164 25.6v615.542c-0.64 19.328-20.608 23.808-25.6 23.808zM163.84 668.16v71.68h701.44v-71.68h-701.44zM865.28 627.2v-471.040h-701.44v471.040h701.44zM439.388 299.52h142.218c10.486 0 19.338-9.38 19.338-20.48s-8.852-20.48-19.338-20.48h-142.218c-10.486 0-19.343 9.38-19.343 20.48s8.863 20.48 19.343 20.48zM283.489 299.259l100.101 100.111-100.101 100.101c-7.542 7.542-7.542 19.809 0 27.351 7.311 7.311 20.040 7.311 27.351 0l113.782-113.782c7.542-7.542 7.542-19.809 0-27.351l-113.782-113.782c-3.661-3.651-8.515-5.658-13.676-5.658-5.166 0-10.025 2.012-13.676 5.658-7.542 7.552-7.542 19.825 0 27.351z" />
<glyph unicode="&#xe908;" glyph-name="verified-caller-ids" d="M466.237 637.123c26.798-24.735 59.546-21.857 59.546-21.857 46.781 0.148 84.649 37.77 84.577 84.613-0.077 46.843-37.97 84.572-84.751 84.572-22.564 0-44.18-9.124-60.093-25.149-13.926-14.024-24.796-34.176-24.428-60.421 0.23-16.671 4.352-42.557 25.149-61.757zM490.967 733.932c9.185 9.252 21.663 14.449 34.678 14.449 26.988 0 48.896-21.924 48.942-49.014 0.041-27.095-21.791-49.091-48.783-49.172-25.948-0.087-47.263 20.106-48.988 45.742-1.295 16.169 6.789 30.577 14.152 37.996zM307.548 376.32h122.301l59.034-91.581c7.972-12.39 21.678-19.748 36.393-19.748s28.421 7.291 36.388 19.671l59.039 91.658h123.039c46.7 0 85.693 38.441 85.693 85.207v313.088c0.005 46.766-38.994 82.985-85.688 82.985h-436.198c-46.7 0-82.268-36.219-82.268-82.985v-313.088c0-46.766 35.569-85.207 82.268-85.207zM261.12 774.615c0 26.993 19.543 47.145 46.428 47.145h436.198c26.885 0 49.853-20.152 49.853-47.145v-313.088c0-26.988-22.968-49.367-49.853-49.367h-142.607l-69.617-108.042c-1.372-2.13-3.727-3.287-6.246-3.287s-4.874 1.352-6.252 3.492l-64.317 99.835-5.289 8.003h-141.87c-26.885 0-46.428 22.38-46.428 49.367v313.088zM417.92 442.88h214.579c19.533 0 33.101 18.104 33.101 37.642v54.134c0 40.315-30.592 72.064-70.743 72.064h-27.32l-42.358-42.455-42.281 42.455h-27.331c-40.325 0-71.567-32.010-71.567-72.387v-53.811c0-19.538 14.387-37.642 33.92-37.642zM419.84 534.333c0 20.598 15.212 36.547 35.727 36.547h12.442l38.272-38.067c4.92-5.161 11.745-7.91 18.893-7.91 7.142 0 13.962 2.657 18.883 7.813l38.344 38.164h12.452c20.424 0 34.903-15.811 34.903-36.326v-55.834h-209.915v55.613zM507.034 181.76c-25.897 1.782-51.354 12.984-71.834 26.691v45.962c0 29.046-21.294 53.545-49.992 57.457l-94.479 12.559c-27.843 3.789-54.651-12.068-64.845-38.354l-3.389-8.719c-19.031-49.096-7.987-104.724 28.283-142.761 62.244-65.050 145.925-105.206 235.489-113.019l5.965-0.502c22.211-1.93 44.605-1.93 66.877 0.005l5.837 0.492c86.979 7.588 168.438 45.65 230.113 107.484l5.253 5.35c36.429 38.2 47.468 93.768 28.518 142.781l-3.236 8.673c-10.317 26.481-37.13 42.322-65.014 38.564l-94.971-12.544c-28.744-3.922-51.21-28.421-51.21-57.411v-46.013c-20.48-13.701-45.225-23.281-70.615-26.266-9.38-1.111-27.325-1.075-36.751-0.43zM543.785 146.13c35.205 2.268 71.316 17.372 99.968 37.996l6.487 5.652v64.635c0 11.069 9.196 20.449 20.163 21.944l94.464 12.539c11.494 1.551 22.784-4.977 27.003-15.811l3.384-8.745c13.988-36.091 5.99-77.036-20.69-105.021l-4.972-5.053c-55.613-55.767-129.193-90.138-207.688-96.988l-5.827-0.492c-20.265-1.761-40.586-1.761-60.79-0.005l-5.955 0.502c-80.824 7.050-156.406 43.325-212.618 102.067-26.66 27.96-34.775 68.905-20.792 104.996l3.415 8.714c4.224 10.885 15.263 17.408 26.726 15.852l94.372-12.559c10.906-1.485 18.929-10.865 18.929-21.99v-64.568l7.66-6.523c28.652-20.634 62.228-35.558 98.468-37.345 10.424-0.522 27.868-0.466 38.292 0.205z" />
<glyph unicode="&#xe909;" glyph-name="profile" d="M512.538 880.394c-237.978 0-432.389-193.295-432.389-432.394s194.412-432.389 432.389-432.389c237.983 0 432.394 194.412 432.394 432.389 0.005 237.983-194.406 432.394-432.394 432.394zM512.538 835.697c213.407 0 387.702-174.295 387.702-387.702 0-97.106-36.168-186.040-95.616-254.218-55.987 72.699-137.247 121.651-226.964 137.769 69.617 26.368 119.235 93.691 119.235 172.447 0 101.668-82.678 184.351-184.356 184.351-101.668 0-184.351-82.678-184.351-184.351 0-78.756 49.623-146.084 119.24-172.452-89.58-16.097-170.798-64.973-226.949-137.8-59.453 68.188-95.636 157.138-95.636 254.259 0 213.402 174.3 387.697 387.697 387.697zM372.879 503.997c0 77.092 62.572 139.658 139.658 139.658 77.097 0 139.663-62.572 139.663-139.658 0-77.097-62.572-139.663-139.663-139.663-77.087 0-139.658 62.566-139.658 139.663zM251.776 161.623c61.235 82.371 157.517 131.072 260.767 131.072 103.45 0 199.752-48.891 260.767-131.077-68.966-62.874-160.548-101.32-260.767-101.32s-191.8 38.451-260.767 101.325z" />
<glyph unicode="&#xe90a;" glyph-name="subaccounts" d="M828.268 195.891c45.399 56.079 72.704 127.35 72.704 204.764 0 131.287-78.428 244.92-190.756 296.612-3.174 4.009-6.441 7.941-9.795 11.796-59.919 68.884-148.076 112.63-246.083 112.63-179.615-0.005-326.339-145.889-326.339-326.349 0-131.794 78.305-245.069 190.484-296.617 59.868-75.771 152.494-124.411 256.143-124.411 99.364 0 188.605 44.954 248.566 115.487zM574.628 337.505c-58.179 0-105.405 47.227-105.405 105.411s47.227 105.411 105.405 105.411c58.189 0 105.411-47.227 105.411-105.411s-47.217-105.411-105.411-105.411zM676.803 305.802c-15.217 4.465-30.843 7.685-46.781 9.503 49.234 21.448 83.743 70.559 83.743 127.611 0 76.733-62.403 139.141-139.141 139.141-76.733 0-139.136-62.403-139.136-139.141 0-62.863 41.892-116.086 99.226-133.279-60.37-14.249-128.676-65.608-167.788-114.724-9.81 7.255-20.905 22.615-26.783 31.124-36.48 48.809-58.132 109.281-58.132 174.612 0 161.065 131.548 292.613 292.608 292.613 40.468 0 80.020-6.262 114.196-23.311 15.514-7.741 45.624-25.078 60.119-34.606 74.721-49.111 118.298-138.834 118.298-234.701 0-66.591-22.533-128.097-60.293-177.388-26.854 30.346-59.914 54.231-96.594 70.328zM161.731 495.345c0 161.065 131.548 292.613 292.608 292.613 68.756 0 132.111-23.987 182.164-63.995 1.587-1.27 3.159-2.555 4.726-3.855-21.514 4.5-43.791 6.892-66.601 6.892-179.615 0-326.339-145.884-326.339-326.344 0-50.068 11.331-97.459 31.493-139.832-71.552 53.448-118.052 138.767-118.052 234.522zM686.95 266.998c38.2-12.974 71.316-38.267 97.894-69.371-53.284-55.142-127.867-89.585-210.217-89.585-70.907 0-134.912 24.428-185.672 66.714 0.722-0.148 0.287 0.794 1.004 0.65l28.872 29.568c46.029 49.649 110.771 78.469 179.692 78.469 17.428 0 34.703-1.306 51.215-5.489 9.4-2.381 28.032-7.839 37.212-10.957z" />
<glyph unicode="&#xe90b;" glyph-name="settings" d="M902.001 545.28c-0.005 0-0.010 0-0.015 0l-75.868 5.268c-6.687 22.129-13.312 42.348-23.649 61.389l52.997 60.452c8.934 9.16 9.088 22.845 0.364 31.79l-98.058 100.736c-8.412 6.482-21.417 6.753-30.474-0.276l-58.87-53.714c-16.881 9.713-36.434 18.125-59.556 25.62l-4.884 75.469c0 5.908-2.888 15.826-22.262 15.826h-137.114c-19.369 0-22.262-9.917-22.241-15.406l-6.574-80.174c-20.552-6.543-40.586-13.517-59.617-24.371l-58.721 54.154c-4.388 4.5-10.056 6.979-15.954 6.979-5.724 0-11.182-2.365-15.365-6.661l-98.161-100.623c-6.482-8.858-6.477-21.719 0.266-30.909l52.485-60.549c-9.61-17.495-17.644-37.14-25.062-61.266l-83.241-5.033c-11.192 0-25.385-10.685-25.385-22.697v-140.677c0-12.006 14.172-24.771 24.945-24.771 0.005 0 0.015 0 0.026 0l82.934-5.709c6.533-20.92 15.57-41.487 26.296-60.861l-51.692-60.078c-2.386-2.452-3.676-5.018-4.623-7.327-1.019-2.483-1.516-5.181-1.516-8.366 0-5.837 2.365-11.438 6.671-15.852l98.268-100.69c8.417-6.472 21.519-6.738 30.587 0.282l58.921 53.734c16.845-9.702 36.403-18.109 59.561-25.615l4.931-86.108c0-11.551 10.793-26.45 22.262-26.45h137.108c11.464 0 22.262 14.899 22.252 26.158l4.946 87.168c20.050 6.615 40.509 15.887 59.581 26.988l58.67-52.838c4.173-4.285 9.626-6.651 15.345-6.651 5.903 0 11.581 2.483 15.98 6.999l98.156 100.951c6.41 8.765 6.41 21.98-0.266 31.068l-52.49 60.631c9.6 17.485 17.638 37.151 25.073 61.338l72.678 5.033c14.833 0 14.833 17.096 14.833 22.712v140.687c0.005 5.617 0.005 22.241-14.474 22.241zM804.454 396.124c-8.561-2.202-14.971-8.858-17.157-17.818-8.156-33.464-17.987-58.691-30.945-79.375l-0.261-0.476c-4.536-9.298-3.246-20.372 2.934-26.701l50.294-57.989-66.842-68.69-56.038 50.964c-6.226 6.385-17.014 7.639-26.793 2.601-25.743-15.099-52.547-26.465-77.261-32.809-1.357-0.282-2.627-0.666-3.86-1.142-9.841-3.84-13.926-18.089-13.916-24.566l-4.854-81.244h-94.889l-4.859 82.99-0.138 0.911c-2.217 9.093-8.607 19.912-17.413 22.17-27.53 7.055-54.262 18.821-77.292 34.012l-0.481 0.282c-9.61 4.925-20.613 4.035-26.337-1.859l-56.32-50.883-66.985 68.869 49.853 57.841c6.298 6.461 7.363 17.29 2.524 27.203-14.72 26.424-25.81 53.345-32.010 78.781-2.284 11.725-15.918 17.603-24.161 17.603-0.005 0-0.010 0-0.020 0l-78.106 6.2v97.649l79.805 4.977 0.952 0.148c8.637 2.212 18.944 8.73 21.161 17.812 6.994 28.698 18.381 56.151 32.937 79.375l0.266 0.481c4.879 10.010 4.040 20.577-1.925 26.675l-49.818 57.989 67.098 68.721 56.172-50.975c6.231-6.39 17.085-7.624 26.854-2.601 25.748 15.099 52.562 26.465 77.297 32.809 7.516 1.546 17.812 3.656 17.797 15.037l4.818 70.661h94.868l3.21-72.289 0.138-0.988c2.079-8.52 8.264-14.505 17.408-16.84 22.671-5.821 51.942-14.638 77.292-31.365l0.486-0.282c8.873-4.552 20.311-3.016 26.358 3.215l56.33 51.512 66.944-68.531-49.843-57.672c-6.282-6.446-7.347-17.244-2.519-27.131 14.735-26.445 25.82-53.729 32.010-79.119 0.968-4.982 3.543-17.951 16.138-17.951 0.005 0 0.010 0 0.015 0l70.149-5.396v-97.715l-70.149-4.941-0.916-0.143zM513.167 570.363c-64.251 0-116.521-53.571-116.521-119.414s52.27-119.414 116.521-119.414c64.251 0 116.521 53.571 116.521 119.414s-52.27 119.414-116.521 119.414zM513.167 376.94c-39.7 0-72.003 33.198-72.003 74.010 0 40.806 32.302 74.004 72.003 74.004s72.003-33.198 72.003-74.004c0-40.812-32.302-74.010-72.003-74.010z" />
<glyph unicode="&#xe90c;" glyph-name="porting" d="M927.396 775.68h-145.213c-10.875 0-19.692-7.040-19.692-17.92s8.817-17.92 19.692-17.92h88.801c0.010 0 0.020 0 0.031 0h35.226v-3.707c0-6.61 0.517-18.104 0.328-18.248-0.108-0.087-0.328-0.174-0.328-0.266v-86.088c0-10.875 7.045-19.692 17.92-19.692s17.92 8.817 17.92 19.692v128.814c0 10.875-3.809 15.334-14.684 15.334zM882.898 501.309c-1.3 0-22.738-0.563-22.738-22.308v-86.236c0-17.853-4.081-29.199-16.783-41.876l-149.033-158.147c-22.61-23.352-42.209-26.342-50.161-26.342h-505.549c-8.494 0-15.749 7.511-15.749 15.995v437.202c-0.005 8.489 7.25 12.723 15.698 12.723h492.308c21.75 0 23.24 18.949 23.24 18.949s-1.49 22.011-23.24 22.011h-502.108c-28.288 0-51.983-18.806-51.983-46.996v-450.836c0-28.288 23.68-55.127 51.994-55.127h514.985c29.542 0 57.958 13.256 78.756 34.243l147.564 158.479c24.499 26.429 36.142 51.538 36.142 79.724v86.236c0 10.578-9.129 22.518-23.342 22.308zM297.759 488.96c-18.601 0-36.639-10.675-36.639-26.276v-141.245c0-15.606 18.038-32.159 36.639-32.159h202.056c18.601 0 32.666 16.553 32.666 32.159v141.245c0 15.601-14.065 26.276-32.666 26.276h-202.056zM496.64 339.185c0-5.647-3.999-14.065-9.656-14.065h-176.271c-5.652 0-13.752 8.412-13.752 14.065v105.769c0 5.647 8.095 8.166 13.752 8.166h176.271c5.652 0 9.656-2.509 9.656-8.166v-105.769zM907.571 739.84h-36.588c-76.488-61.44-138.742-124.206-178.831-211.881-9.272-20.931 3.748-32.154 9.861-34.028 6.108-1.869 23.025-2.565 30.715 19.369 27.377 78.157 101.832 149.494 173.512 204.319v18.514c0 2.499 1.336 3.707 1.331 3.707z" />
<glyph unicode="&#xe90d;" glyph-name="uniE90D" d="M596.905 412.058c-5.652 24.448-24.873 42.578-43.249 53.76-19.625 11.94-41.656 18.949-67.256 26.726v142.909c35.84-5.832 64.466-27.464 76.795-48 3.881-9.236 18.668-13.404 27.218-8.182 8.54 5.222 7.613 18.509 1.172 26.179-18.36 30.602-53.985 59.116-105.185 64.916v36.547c0 9.641-5.719 17.454-15.36 17.454s-15.36-7.813-15.36-17.454v-35.999c-25.6-2.708-47.652-11.32-66.028-26.184-22.467-18.166-35.471-45.983-35.471-77.45 0-34.391 16.906-58.598 39.844-72.545 19.625-11.945 36.055-18.954 61.655-26.737v-143.457c-35.84 5.944-58.071 28.006-70.395 48.543-3.881 9.236-15.468 13.404-24.018 8.187-8.54-5.228-12.421-18.514-5.975-26.184 18.36-30.592 49.188-59.561 100.388-65.454v-36.547c0-9.641 5.719-17.454 15.36-17.454s15.36 7.813 15.36 17.454v35.999c15.36 1.782 35.118 5.985 49.275 12.529 0 0 31.365 15.821 44.165 36.301 25.6 40.965 17.065 74.143 17.065 74.143z" />
<glyph unicode="&#xe90e;" glyph-name="numbers" d="M882.345 320h-200.018l34.575 266.24h165.443c12.723 0 23.040 10.317 23.040 23.040s-10.317 23.040-23.040 23.040h-159.457l25.216 193.725c1.638 12.621-7.26 23.967-19.881 25.6-12.605 1.654-24.177-6.943-25.815-19.558l-25.984-199.767h-265.856l25.216 193.725c1.638 12.621-7.26 23.967-19.881 25.6-12.6 1.654-24.177-6.943-25.815-19.558l-25.984-199.767h-198.559c-12.723 0-23.040-10.317-23.040-23.040s10.317-23.040 23.040-23.040h192.573l-34.575-266.24h-157.998c-12.723 0-23.040-10.317-23.040-23.040s10.317-23.040 23.040-23.040h152.013l-26.378-203.546c-1.638-12.621 7.26-24.392 19.881-26.025 1.009-0.133 2.007-0.302 2.995-0.302 11.402 0 21.309 8.837 22.82 20.449l27.151 209.423h265.856l-26.378-203.546c-1.638-12.621 7.26-24.392 19.881-26.025 1.009-0.133 2.007-0.302 2.995-0.302 11.402 0 21.309 8.837 22.82 20.449l27.146 209.423h206.003c12.723 0 23.040 10.317 23.040 23.040s-10.317 23.040-23.045 23.040zM370.012 320l34.575 266.24h265.856l-34.575-266.24h-265.856z" />
<glyph unicode="&#xe90f;" glyph-name="logs" d="M232.858 673.28h669.542c12.723 0 23.040 10.317 23.040 23.040s-10.317 23.040-23.040 23.040h-669.542c-12.718 0-23.040-10.317-23.040-23.040s10.322-23.040 23.040-23.040zM145.039 698.88c0-18.561-14.989-33.608-33.48-33.608s-33.48 15.047-33.48 33.608c0 18.561 14.989 33.608 33.48 33.608s33.48-15.047 33.48-33.608zM145.039 448c0-18.561-14.989-33.608-33.48-33.608s-33.48 15.047-33.48 33.608c0 18.561 14.989 33.608 33.48 33.608s33.48-15.047 33.48-33.608zM145.039 197.12c0-18.561-14.989-33.608-33.48-33.608s-33.48 15.047-33.48 33.608c0 18.561 14.989 33.608 33.48 33.608s33.48-15.047 33.48-33.608zM902.4 468.48h-669.542c-12.718 0-23.040-10.317-23.040-23.040s10.322-23.040 23.040-23.040h669.542c12.723 0 23.040 10.317 23.040 23.040s-10.317 23.040-23.040 23.040zM902.4 217.6h-669.542c-12.718 0-23.040-10.317-23.040-23.040s10.322-23.040 23.040-23.040h669.542c12.723 0 23.040 10.317 23.040 23.040s-10.317 23.040-23.040 23.040z" />
<glyph unicode="&#xe910;" glyph-name="history" d="M556.375 44.426v0c-134.241 0-259.333 66.499-334.623 177.889-7.736 11.515-4.695 27.167 6.758 34.908 4.096 2.816 8.975 4.332 14.044 4.332 8.371 0 16.169-4.142 20.854-11.075 65.93-97.536 175.457-155.766 292.977-155.766 194.826 0 353.331 158.479 353.331 353.28 0 194.806-158.495 353.29-353.311 353.29-176.179 0-324.685-131.103-349.286-303.119l87.537 59.494c4.291 2.852 9.144 4.321 14.147 4.321 8.346 0 16.118-4.111 20.797-10.993 7.762-11.51 4.756-27.167-6.676-34.934-131.666-89.16-131.845-89.272-132.244-89.508-3.958-2.309-7.854-3.482-12.078-3.681l-0.609-0.015c-2.463 0-4.618 0.394-7.69 1.413-2.104 0.599-4.065 1.7-7.009 3.599l-1.224 0.896c-0.855 0.707-1.654 1.408-3.651 3.543l-1.239 1.551-88.858 130.836c-7.757 11.53-4.746 27.192 6.676 34.949 4.193 2.826 9.052 4.311 14.080 4.311 8.34 0 16.123-4.091 20.823-10.936l49.495-72.919c15.642 86.42 59.244 165.581 124.902 225.664 74.557 68.234 171.187 105.815 272.082 105.815 222.546 0 403.599-181.038 403.599-403.569 0.005-222.525-181.053-403.569-403.604-403.579zM177.034 450.186l0.22-0.323 0.558 8.53-0.778-8.207zM690.401 286.28c5.166 4.301 8.351 10.358 8.96 17.065 0.609 6.692-1.428 13.21-5.699 18.319l-112.133 135.388v227.625c0 13.86-11.279 25.139-25.139 25.139s-25.129-11.279-25.129-25.139v-236.672c0-5.862 2.058-11.566 5.786-16.046l117.944-142.413c4.803-5.765 11.848-9.068 19.333-9.068 5.827-0.005 11.525 2.048 16.077 5.801z" />
<glyph unicode="&#xe911;" glyph-name="dashboard" d="M864.174 312.428c-10.793 0-19.804-8.218-19.804-19.011 0-11.274 9.006-19.492 19.804-19.492h62.408c10.793 0 19.804 9.308 19.804 20.106 0 103.782-37.54 204.442-104.545 283.484-65.316 77.046-158.802 129.787-258.447 146.022-22.692 3.702-45.573 5.601-68.413 5.734-1.050 0.179-2.13 0.271-3.22 0.271-1.111 0-2.207-0.097-3.277-0.282-79.34-0.696-157.885-22.712-225.889-64.901-27.843-17.27-53.499-37.652-76.57-60.58-0.614-0.481-1.203-0.998-1.772-1.567-0.584-0.584-1.126-1.198-1.618-1.838-47.181-47.923-83.195-106.578-104.407-170.854-14.326-43.397-21.299-89.82-21.299-135.485 0-10.793 9.006-20.106 19.804-20.106h61.455c10.798 0 19.804 9.313 19.804 20.106 0 11.274-9.006 18.248-19.804 18.248-1.434 0-41.385-0.113-41.385-0.113 0.251 5.12 0.799 10.829 1.265 16.343 0.517 6.144 1.198 13.368 1.992 19.482 0.348 2.324 0.584 4.388 0.819 5.898 0.548 3.523 1.157 7.296 1.792 10.798 4.48 24.663 11.351 49.009 20.234 72.443 1.055 2.78 2.15 5.617 3.267 8.371 0.558 1.377 1.126 2.775 1.7 4.147 2.883 6.61 5.606 12.431 8.428 18.191 5.402 11.018 11.356 21.78 17.71 32.282 6.333 10.455 13.184 20.593 20.408 30.449 1.731 2.365 3.502 4.7 5.284 7.025 1.413 1.756 2.33 2.893 3.251 4.035 3.973 4.931 8.090 9.748 12.288 14.5 1.111 1.254 2.232 2.504 3.359 3.743 9.39-9.39 18.785-18.785 28.18-28.175 7.629-7.629 20.372-7.629 28.006 0 7.629 7.624 7.629 20.372 0 28.006-9.39 9.39-18.78 18.78-28.17 28.17 7.014 6.369 14.244 12.503 21.663 18.401 1.766 1.398 2.934 2.284 4.101 3.164 2.34 1.766 4.7 3.497 7.076 5.212 5.151 3.722 10.404 7.301 15.718 10.778 10.245 6.717 20.828 12.918 31.631 18.698 5.207 2.79 10.486 5.437 15.805 7.997 2.668 1.285 5.35 2.524 8.044 3.748 1.347 0.609 2.703 1.208 4.055 1.812 0.41 0.179 1.812 0.778 2.847 1.224 11.203 4.69 22.63 8.837 34.207 12.518 11.955 3.804 24.105 6.989 36.362 9.687 5.939 1.306 11.909 2.452 17.9 3.492 3.011 0.527 6.031 0.998 9.052 1.459 1.516 0.225 2.816 0.44 4.332 0.65 11.054 1.331 21.873 2.232 32.113 2.724v-51.538c0-10.793 7.127-19.804 17.92-19.804s17.92 9.011 17.92 19.804v51.548c5.12-0.108 6.625-0.23 8.888-0.369 6.175-0.379 13.394-0.932 19.548-1.587 3.062-0.323 6.636-0.707 9.687-1.096 2.826-0.425 5.105-0.748 7.117-1.065 12.483-1.987 24.986-4.608 37.228-7.736 12.099-3.087 24.105-6.784 35.876-10.962 5.612-1.992 11.197-4.132 16.712-6.359 1.377-0.553 2.76-1.126 4.132-1.695 3.891-1.71 7.045-3.139 10.179-4.593 22.246-10.317 43.494-22.728 63.565-36.808 4.792-3.364 9.498-6.856 14.152-10.414 1.756-1.408 2.893-2.33 4.029-3.251 2.657-2.14 5.274-4.326 7.88-6.533 3.512-2.97 6.963-6.011 10.363-9.108-9.39-9.39-18.78-18.785-28.17-28.175-7.629-7.629-7.629-20.372 0-28.006s20.378-7.634 28.006 0c9.39 9.39 18.78 18.785 28.17 28.175 4.403-4.849 8.694-9.805 12.877-14.843 1.869-2.253 3.702-4.536 5.524-6.825 1.398-1.766 2.284-2.934 3.164-4.101 3.83-5.064 7.511-10.24 11.1-15.473 13.885-20.239 25.856-41.774 35.942-64.143 0.609-1.352 1.203-2.708 1.797-4.065 1.485-3.466 2.591-6.221 3.686-8.986 2.376-6.006 4.577-12.073 6.666-18.186 4.055-11.837 7.496-23.88 10.455-36.040 1.91-7.859 3.548-15.785 4.992-23.741 0.727-4.009 1.377-8.028 1.987-12.052 0.087-0.563 0.394-2.806 0.543-3.871 0.195-1.521 0.384-5.222 0.563-6.743 1.126-9.585 1.951-18.396 2.386-28.636l-42.23 0.261zM527.36 370.749v160.758c0 10.793-7.127 19.804-17.92 19.804s-17.92-9.011-17.92-19.804v-160.512c-3.523-0.916-4.081-1.234-6.2-2.012-30.208-10.998-49.372-37.837-52.27-69.504-2.698-29.471 14.592-58.547 39.685-73.103 25.631-14.868 59.868-13.373 83.912 3.988 19.84 14.331 31.099 35.18 33.464 59.392 2.171 22.246-9.564 44.943-24.924 60.692-10.025 9.779-22.467 16.742-37.827 20.301zM550.62 291.287c-0.015-0.364-0.118-1.254-0.21-2.002-0.2-1.070-0.41-2.145-0.65-3.205-0.333-1.449-0.778-2.872-1.219-4.291-0.118-0.379-0.507-1.388-0.773-2.109-1.229-2.627-2.662-5.151-4.244-7.578-0.179-0.276-0.64-0.886-1.050-1.428-0.712-0.835-1.434-1.659-2.176-2.463-0.988-1.065-2.053-2.053-3.118-3.041-0.287-0.266-1.101-0.937-1.69-1.418-1.997-1.413-4.081-2.693-6.221-3.866-0.691-0.379-1.413-0.691-2.13-1.029 0.215 0.195-3.308-1.203-4.081-1.439-1.434-0.445-2.898-0.773-4.367-1.106-0.374-0.087-1.336-0.23-2.099-0.348-2.166-0.184-4.337-0.241-6.508-0.215-0.927 0.010-1.848 0.108-2.77 0.184-0.742 0.097-2.14 0.266-2.637 0.364-1.48 0.297-2.929 0.701-4.378 1.106-0.614 0.169-3.113 1.096-3.896 1.341-2.109 1.004-4.157 2.125-6.149 3.338-0.666 0.41-1.29 0.876-1.935 1.326-0.43 0.358-1.787 1.403-2.191 1.761-1.756 1.551-3.343 3.272-4.884 5.033-0.456 0.579-1.213 1.531-1.469 1.905-1.101 1.597-2.058 3.287-2.99 4.987-0.358 0.65-0.655 1.331-0.973 2.002-0.169 0.471-0.87 2.161-1.055 2.703-0.753 2.217-1.275 4.495-1.725 6.789-0.102 0.737-0.312 2.191-0.348 2.703-0.087 1.172-0.087 2.35-0.108 3.523-0.031 1.562 0.082 3.123 0.184 4.675 0.020 0.215 0.026 0.297 0.046 0.466 0.108 0.614 0.21 1.224 0.338 1.833 0.502 2.519 1.27 4.977 2.12 7.398 0.266 0.686 0.614 1.556 0.778 1.905 0.64 1.326 1.382 2.596 2.12 3.866s1.562 2.478 2.391 3.686c0.041 0.061 0.046 0.072 0.087 0.128 0.133 0.154 0.215 0.236 0.41 0.471 1.853 2.207 3.948 4.178 6.118 6.067 0.589 0.466 1.505 1.188 1.869 1.439 1.208 0.829 2.478 1.567 3.748 2.299 1.224 0.712 2.493 1.326 3.763 1.94 0.225 0.077 0.512 0.174 0.922 0.323 2.826 1.029 5.76 1.725 8.709 2.309 0.072 0.015 0.108 0.020 0.179 0.036 0.189 0.015 0.379 0.031 0.635 0.056 1.582 0.143 3.18 0.179 4.767 0.179 1.556 0 3.108-0.087 4.664-0.189 0.189-0.020 0.256-0.026 0.41-0.041 0.625-0.108 1.249-0.215 1.874-0.343 1.475-0.297 2.924-0.701 4.367-1.106 0.594-0.169 2.929-1.034 3.789-1.311 2.575-1.213 5.059-2.616 7.45-4.163 0.261-0.169 0.84-0.604 1.372-1.004 1.244-1.055 2.452-2.145 3.62-3.287 0.005-0.005 0.010-0.010 0.020-0.015 1.014-1.039 1.997-2.099 2.959-3.19 0.154-0.174 0.2-0.215 0.317-0.343 0.072-0.108 0.087-0.128 0.179-0.256 1.715-2.381 3.164-4.946 4.506-7.552 0.128-0.251 0.364-0.799 0.594-1.352 0.435-1.178 0.835-2.376 1.203-3.579 0.44-1.434 0.773-2.908 1.106-4.372 0.128-0.609 0.225-1.219 0.338-1.833 0.015-0.169 0.020-0.251 0.046-0.466 0.225-2.734 0.174-5.473 0.046-8.202z" />
<glyph unicode="&#xe912;" glyph-name="byoc" d="M416.307 335.534c-14.705 15.437-32.143 27.643-52.316 36.618-20.168 8.98-42.081 13.471-65.736 13.471-23.357 0-45.117-4.49-65.28-13.471-20.163-8.975-37.683-21.187-52.547-36.618s-26.46-33.546-34.801-54.339c-8.34-20.792-12.508-42.998-12.508-66.627 0-23.624 4.168-45.829 12.508-66.627 8.34-20.792 19.942-38.902 34.801-54.339s32.379-27.638 52.547-36.618c20.163-8.975 41.923-13.466 65.28-13.466 23.654 0 45.563 4.49 65.736 13.466 20.168 8.98 37.612 21.187 52.316 36.618 14.71 15.442 26.312 33.551 34.806 54.339 8.489 20.797 12.733 42.998 12.733 66.627s-4.244 45.834-12.733 66.627c-8.499 20.792-20.096 38.907-34.806 54.339zM396.288 167.557c-5.309-14.643-12.662-27.325-22.062-38.036-9.405-10.711-20.552-19.139-33.439-25.283-12.892-6.144-27.069-9.216-42.537-9.216-15.165 0-29.189 3.072-42.081 9.216-12.892 6.139-24.033 14.572-33.434 25.283s-16.758 23.388-22.067 38.036c-5.304 14.648-7.962 30.321-7.962 47.017s2.657 32.369 7.962 47.017c5.304 14.648 12.667 27.331 22.067 38.042s20.547 19.133 33.434 25.283 26.916 9.216 42.081 9.216c15.468 0 29.645-3.072 42.537-9.216s24.033-14.572 33.439-25.283c9.4-10.711 16.748-23.388 22.062-38.042 5.309-14.643 7.962-30.321 7.962-47.017s-2.647-32.369-7.962-47.017zM714.23 101.678c-17.244 0-32.922 2.836-47.032 8.504s-26.102 13.706-35.973 24.1-17.556 22.994-23.045 37.801c-5.484 14.807-8.228 31.186-8.228 49.142 0 17.014 2.898 32.84 8.699 47.488s13.722 27.249 23.752 37.801c10.030 10.557 22.026 18.898 35.978 25.047 13.952 6.144 29.23 9.216 45.85 9.216 12.539 0 24.53-2.048 35.968-6.144 11.448-4.096 22.185-9.764 32.22-17.009l27.74 45.363c-15.043 9.134-30.331 16.302-45.85 21.494-15.519 5.202-32.21 7.798-50.079 7.798-24.458 0-47.34-4.337-68.659-12.995-21.32-8.663-39.895-20.634-55.731-35.912-15.831-15.278-28.37-33.393-37.622-54.339-9.252-20.951-13.87-43.551-13.87-67.809 0-25.513 4.465-48.824 13.399-69.929s21.238-39.142 36.915-54.103c15.677-14.961 34.094-26.542 55.255-34.729 21.166-8.192 44.129-12.283 68.9-12.283 19.118 0 37.458 2.995 55.020 8.98 17.556 5.985 34.171 14.49 49.848 25.513l-32.451 42.527c-21.627-17.014-45.297-25.523-71.004-25.523zM629.76 453.12h61.44v140.483l133.499 192.317h-73.672l-86.559-128h-1.019l-91.197 128h-78.28l135.788-189.952zM317.793 456.74c16.097 1.736 30.843 5.78 44.262 11.141 18.775 7.245 33.613 18.365 44.513 32.855s16.343 31.473 16.343 50.688c0 18.586-5.443 34.642-16.343 48.026-10.9 13.389-26.409 23.107-46.525 29.092 16.763 6.298 29.005 15.217 36.716 26.716 7.711 11.494 11.571 24.34 11.571 38.518 0 15.119-3.272 28.749-9.81 40.873-6.538 12.129-16.512 22.292-29.926 30.484-12.744 7.875-27.412 13.312-44.012 16.302-16.594 2.99-33.444 4.485-50.55 4.485h-89.713v-332.8h85.192c16.092 0 32.189 1.889 48.282 3.62zM245.76 734.72h19.727c12.744 0 24.566 0 35.461-1.096 10.895-1.106 20.204-3.738 27.914-8.468 5.366-3.466 9.554-7.654 12.575-12.851 3.016-5.202 4.526-12.293 4.526-21.432 0-14.807-6.369-25.774-19.108-32.701-12.749-6.927-30.684-10.491-53.827-10.491h-27.269v87.040zM245.76 504.32v97.28h48.901c20.449 0 35.958-5.1 46.52-13.921s15.846-21.135 15.846-36.255c0-9.764-2.094-17.736-6.287-23.562-4.188-5.832-9.979-10.563-17.352-14.029-8.719-3.779-18.611-6.651-29.681-7.593-11.064-0.947-22.799-1.92-35.21-1.92h-22.738z" />
<glyph unicode="&#xe913;" glyph-name="sms-applications" d="M875.52 782.72l-719.903-0.22c-1.838 0.108-3.666 0.169-5.437 0.169-6.088 0-14.879-0.712-20.838-6.902-4.716-4.89-6.461-12.145-6.461-21.975v-610.422c0-19.538 11.223-25.62 30.776-25.62l715.3 0.020c23.721 0.317 32.164 10.952 32.164 25.6v615.542c-0.64 19.328-20.608 23.808-25.6 23.808zM163.84 668.16v71.68h701.44v-71.68h-701.44zM865.28 627.2v-471.040h-701.44v471.040h701.44zM439.388 299.52h142.218c10.486 0 19.338-9.38 19.338-20.48s-8.852-20.48-19.338-20.48h-142.218c-10.486 0-19.343 9.38-19.343 20.48s8.863 20.48 19.343 20.48zM283.489 299.259l100.101 100.111-100.101 100.101c-7.542 7.542-7.542 19.809 0 27.351 7.311 7.311 20.040 7.311 27.351 0l113.782-113.782c7.542-7.542 7.542-19.809 0-27.351l-113.782-113.782c-3.661-3.651-8.515-5.658-13.676-5.658-5.166 0-10.025 2.012-13.676 5.658-7.542 7.552-7.542 19.825 0 27.351z" />
<glyph unicode="&#xe914;" glyph-name="analytics" d="M942.080 80.666v707.502c0 9.897-5.56 18.232-15.457 18.232h-140.877c-9.892 0-17.751-8.335-17.751-18.232v-688.328h-76.8v544.932c0 9.897-5.96 18.268-15.862 18.268h-140.872c-9.902 0-17.352-8.376-17.352-18.268v-544.932h-61.43v403.123c0 9.897-6.82 16.717-16.717 16.717h-140.872c-9.897 0-16.492-6.82-16.492-16.717v-403.123h-61.44v285.967c0 9.897-7.675 16.113-17.572 16.113h-140.872c-9.897 0-15.636-6.221-15.636-16.113v-305.249c0-9.073 5.622-15.391 14.372-16.579 1.853-0.65 2.673 0.026 4.751 0.026h861.517c9.902-0.005 15.36 6.764 15.36 16.66 0 0.323 0-0.317 0 0zM552.96 627.2h102.4v-527.36h-102.4v527.36zM317.44 483.84h102.4v-384h-102.4v384zM803.84 770.56h102.4v-670.72h-102.4v670.72zM81.92 366.080h102.4v-266.24h-102.4v266.24z" />
<glyph unicode="&#xe915;" glyph-name="address" d="M574.31 412.16h124.626c11.1 0 20.101 9.354 20.101 20.48 0 11.131-8.996 20.48-20.101 20.48h-124.626c-11.1 0-20.101-9.354-20.101-20.48 0.005-11.126 9.001-20.48 20.101-20.48zM393.405 397.179c28.201 25.779 37.699 66.284 23.9 101.955-13.793 35.676-48.046 59.187-86.216 59.187-38.175 0-72.422-23.511-86.216-59.187-13.793-35.671-4.301-76.175 23.9-101.955-45.322-23.265-73.984-69.852-74.373-120.878 0 0-2.386-29.281 18.749-29.281 21.13 0 18.975 28.268 18.975 28.268 0 37.135 16.154 72.381 47.401 91.909 31.247 19.533 70.866 19.533 102.113 0 31.247-19.528 48.026-55.962 48.026-91.909 0 0-1.198-28.268 17.951-28.268s19.149 28.268 19.149 28.268c1.731 55.485-28.109 98.181-73.359 121.892zM331.095 414.3c-28.867 0-52.265 23.455-52.265 52.383 0.532 28.698 23.624 51.84 52.265 52.378 28.861 0 52.265-23.455 52.265-52.378-0.005-28.928-23.404-52.383-52.265-52.383zM845.676 698.88h-215.916v65.971c0 11.126-6.154 15.949-17.254 15.949h-164.828c-11.1 0-22.717-4.823-22.717-15.949v-65.971h-246.636c-55.506 0-101.524-41.585-101.524-97.213v-388.823c0-26.721 11.1-53.35 29.947-72.243s44.923-30.515 71.578-30.515h667.351c55.506 0 96.404 47.124 96.404 102.758v388.823c0 55.629-40.899 97.213-96.404 97.213zM465.92 739.84h122.88v-117.76h-122.88v117.76zM901.12 212.838c0-33.382-22.144-61.798-55.444-61.798h-667.351c-33.306 0-60.564 28.421-60.564 61.798v388.828c0 33.377 27.259 56.253 60.564 56.253h246.636v-55.25c0-11.126 11.617-21.55 22.717-21.55h164.828c11.1 0 17.254 10.424 17.254 21.55v55.25h215.916c33.3 0 55.444-22.876 55.444-56.253v-388.828zM809.492 366.080h-235.182c-11.1 0-20.101-9.354-20.101-20.48s8.996-20.48 20.101-20.48h235.182c11.1 0 20.101 9.354 20.101 20.48s-9.001 20.48-20.101 20.48z" />
<glyph unicode="&#xe916;" glyph-name="arrow-down" horiz-adv-x="2048" d="M1714.272 932.572c50.497 49.473 131.537 48.643 181.010-1.854s48.643-131.537-1.854-181.010l-783.894-768c-50.504-49.48-131.56-48.641-181.029 1.873l-752.106 768c-49.462 50.507-48.614 131.548 1.893 181.009s131.548 48.614 181.009-1.893l662.529-676.529 692.442 678.403z" />
<glyph unicode="&#xe917;" glyph-name="collapse-up" d="M316 280.667l-60 60 256 256 256-256-60-60-196 196z" />
<glyph unicode="&#xe918;" glyph-name="expand-down" d="M316 604.667l196-196 196 196 60-60-256-256-256 256z" />
<glyph unicode="&#xe919;" glyph-name="trash-2" d="M896 725.334h-170.667v42.667c0 72.533-55.467 128-128 128h-170.667c-72.533 0-128-55.467-128-128v-42.667h-170.667c-25.6 0-42.667-17.067-42.667-42.667s17.067-42.667 42.667-42.667h42.667v-554.667c0-72.533 55.467-128 128-128h426.667c72.533 0 128 55.467 128 128v554.667h42.667c25.6 0 42.667 17.067 42.667 42.667s-17.067 42.667-42.667 42.667zM384 768c0 25.6 17.067 42.667 42.667 42.667h170.667c25.6 0 42.667-17.067 42.667-42.667v-42.667h-256v42.667zM768 85.334c0-25.6-17.067-42.667-42.667-42.667h-426.667c-25.6 0-42.667 17.067-42.667 42.667v554.667h512v-554.667zM426.667 512c-25.6 0-42.667-17.067-42.667-42.667v-256c0-25.6 17.067-42.667 42.667-42.667s42.667 17.067 42.667 42.667v256c0 25.6-17.067 42.667-42.667 42.667zM597.333 512c-25.6 0-42.667-17.067-42.667-42.667v-256c0-25.6 17.067-42.667 42.667-42.667s42.667 17.067 42.667 42.667v256c0 25.6-17.067 42.667-42.667 42.667z" />
<glyph unicode="&#xe91a;" glyph-name="expand-right" d="M366 240.667l196 196-196 196 60 60 256-256-256-256z" />
<glyph unicode="&#xe91b;" glyph-name="collapse-left" d="M658 252.667l-60-60-256 256 256 256 60-60-196-196z" />
<glyph unicode="&#xe91c;" glyph-name="PHLO-Icon" d="M735.595 315.139h-58.329v100.456h-366.177c-16.203 0-29.165 12.962-29.165 29.165v0 168.506h58.329v-136.101h366.177c16.203 0 29.165-12.962 29.165-29.165v-132.861zM570.329 853.063c12.962 0 22.684-9.722 22.684-22.684v-168.506c0-12.962-9.722-22.684-22.684-22.684h-499.038c-12.962 0-22.684 9.722-22.684 22.684v0 168.506c0 12.962 9.722 22.684 22.684 22.684h499.038zM570.329 904.911h-499.038c-38.886 0-71.291-32.405-71.291-71.291v0-168.506c0-38.886 32.405-74.532 71.291-74.532 0 0 0 0 0 0h499.038c38.886 0 71.291 32.405 71.291 71.291 0 0 0 0 0 0v168.506c0 42.127-32.405 74.532-71.291 74.532 0 0 0 0 0 0v0zM952.709 256.81c12.962 0 22.684-9.722 22.684-22.684v-168.506c0-12.962-9.722-22.684-22.684-22.684h-499.038c-12.962 0-22.684 9.722-22.684 22.684v168.506c0 12.962 9.722 22.684 22.684 22.684h499.038zM453.671 305.418c-38.886 0-71.291-32.405-71.291-71.291v-168.506c0-38.886 32.405-71.291 71.291-71.291h499.038c38.886 0 71.291 32.405 71.291 71.291v168.506c0 38.886-32.405 74.532-71.291 74.532 0 0 0 0 0 0l-499.038-3.241zM349.975 554.937h-81.013c-9.722 0-19.443 9.722-19.443 19.443v84.253c0 9.722 9.722 19.443 19.443 19.443 0 0 0 0 0 0h81.013c9.722 0 19.443-9.722 19.443-19.443v-81.013c3.241-9.722-6.481-19.443-19.443-22.684 3.241 0 3.241 0 0 0zM291.646 597.063h38.886v38.886h-38.886v-38.886zM742.076 214.684h-81.013c-9.722 0-19.443 9.722-19.443 19.443 0 0 0 0 0 0v84.253c0 9.722 9.722 19.443 19.443 19.443h81.013c9.722 0 19.443-9.722 19.443-19.443v-81.013c3.241-9.722-6.481-19.443-19.443-22.684 3.241 0 3.241 0 0 0zM683.747 256.81h38.886v38.886h-38.886v-38.886z" />
<glyph unicode="&#xe91d;" glyph-name="uniE91D" d="M538.762 343.091c-11.581-9.364-26.762-15.841-47.242-18.545v130.908c20.48-6.374 35.564-12.703 46.961-19.635 16.599-10.102 25.068-19.4 25.068-43.095 0-21.407-9.636-37.386-24.786-49.633z" />
<glyph unicode="&#xe91e;" glyph-name="uniE91E" d="M460.8 636.001v-130.913c-20.48 6.374-34.284 12.708-45.681 19.635-16.604 10.102-24.75 18.862-24.75 42.552 0 21.407 9.16 37.929 24.31 50.181 15.836 10.506 30.761 16.655 46.121 18.545z" />
<glyph unicode="&#xe91f;" glyph-name="uniE91F" d="M938.24 158.72c0-12.431-10.076-23.040-22.508-23.040h-91.412v-83.732c0-12.431-8.044-22.508-20.48-22.508s-20.48 10.081-20.48 22.508v83.732h-86.292c-12.431 0-22.508 10.609-22.508 23.040s10.076 23.040 22.508 23.040h86.292v88.852c0 12.431 8.044 22.508 20.48 22.508s20.48-10.081 20.48-22.508v-88.852h91.412c12.431 0 22.508-10.609 22.508-23.040z" />
<glyph unicode="&#xe920;" glyph-name="uniE920" d="M783.36 325.12v380.692c0 43.428-42.619 74.988-92.012 74.988h-431.176c-49.393 0-91.213-31.555-91.213-74.967v-440.458c0-43.412 41.836-83.615 91.238-83.615h379.244c-0.082-23.040-0.404-22.077-0.404-41.6l-378.839 0.64c-74.102 0-137.318 59.448-137.318 124.575v440.458c0 65.126 63.206 115.927 137.293 115.927h431.176c74.092 0 132.972-50.816 132.972-115.948v-380.692z" />
<glyph unicode="&#xe922;" glyph-name="pricing-icon" d="M512-18.824c-257.82 0-466.824 209.004-466.824 466.824s209.004 466.824 466.824 466.824c257.82 0 466.824-209.004 466.824-466.824s-209.004-466.824-466.824-466.824zM512 11.294c241.186 0 436.706 195.52 436.706 436.706s-195.52 436.706-436.706 436.706c-241.186 0-436.706-195.52-436.706-436.706s195.52-436.706 436.706-436.706zM361.412 304.038l30.72 30.72c28.913-30.72 64.452-48.188 107.219-48.188 39.755 0 93.365 19.275 93.365 78.306 0 50.598-46.381 66.861-95.172 84.329-54.814 19.275-113.242 40.358-113.242 112.038 0 56.019 43.972 97.581 106.014 100.593v57.224h32.527v-58.428c33.732-2.409 66.259-15.059 96.376-36.141l-27.708-31.925c-21.685 20.48-53.007 30.118-86.739 30.118-36.744 0-78.908-16.866-78.908-61.44 0-46.984 52.405-59.633 104.809-78.306s104.809-43.369 104.809-112.038c0-70.475-50.598-113.242-115.049-121.675v-57.826h-32.527v56.621c-46.984 0.602-88.546 19.878-126.494 56.019z" />
<glyph unicode="&#xe923;" glyph-name="sip-inbound-a" horiz-adv-x="1219" d="M1065.154 918.689h-673.159c-12.366 24.415-37.739 41.311-67.36 41.311-41.696 0-75.507-33.22-75.507-74.16 0-40.997 33.811-74.217 75.507-74.217 29.621 0 54.993 16.925 67.36 41.311h673.159c47.952 0 86.942-38.338 86.942-85.424v-680.303c0-47.115-38.99-85.424-86.942-85.424h-869.244c-47.952 0-86.971 38.309-86.971 85.424v474.32c24.849 12.15 42.074 37.080 42.074 66.183 0 40.968-33.811 74.188-75.536 74.188-41.696 0-75.478-33.22-75.478-74.188 0-29.075 17.196-54.005 42.016-66.183v-474.32c0-83.394 69.018-151.207 153.894-151.207h869.244c84.876 0 153.894 67.813 153.894 151.207v680.303c0 83.365-69.018 151.179-153.894 151.179zM429.105 257.829l43.442 40.96 111.709-105.326v132.632h62.061v-132.632l111.709 105.326 43.442-40.96-186.182-175.543zM585.143 716.19v-340.846h62.061v340.846zM492.138 637.588c-16.944 15.062-43.302 28.24-68.719 28.24-27.299 0-48.95-13.65-48.95-38.595 0-25.887 32.477-36.242 58.834-45.185 48.479-16.474 103.078-38.125 103.078-104.49 0-72.484-65.894-102.136-120.493-102.136-49.892 0-87.546 17.415-123.317 52.716l39.537 38.125c28.711-27.77 50.362-40.478 84.251-40.478 29.182 0 58.364 14.12 58.364 48.48 0 31.535-33.418 43.302-67.777 55.54-44.243 16.003-90.84 37.654-90.84 94.606 0 62.6 49.892 91.782 104.019 91.782 40.949 0 74.367-12.708 106.372-36.713l-34.359-41.89zM731.429 716.19h105.662c56.97 0 124.652-27.755 124.652-104.201 0-76.934-67.195-104.688-124.652-104.688h-45.284v-131.956h-60.378v340.846zM791.807 664.577v-105.662h34.085c41.388 0 72.065 13.634 72.065 51.614 0 33.598-25.32 54.048-62.326 54.048h-43.823z" />
<glyph unicode="&#xe924;" glyph-name="sip-inbound-b" horiz-adv-x="1170" d="M563.561 918.689c-11.872 24.415-36.229 41.311-64.665 41.311-40.028 0-72.486-33.163-72.486-74.16s32.458-74.217 72.486-74.217c28.436 0 52.794 16.925 64.665 41.311h458.987c46.034 0 83.464-38.338 83.464-85.424v-680.303c0-47.115-37.43-85.424-83.464-85.424h-834.474c-46.034 0-83.492 38.309-83.492 85.424v376.796c23.855 12.15 40.391 37.080 40.391 66.183 0 40.968-32.458 74.188-72.514 74.188-40.028 0-72.458-33.22-72.458-74.188 0-29.075 16.508-54.005 40.335-66.183v-376.796c0-83.394 66.257-151.207 147.738-151.207h834.474c81.481 0 147.738 67.813 147.738 151.207v680.303c0 83.365-66.257 151.179-147.738 151.179h-458.987zM411.17 876.526l-60.202-1.771-4.553-154.806-129.385 129.385-44.266-44.266 129.385-129.385-154.806-4.553-1.771-60.202 258.010 7.589zM585.143 569.905v-340.846h62.061v340.846zM492.138 491.302c-16.944 15.062-43.302 28.24-68.719 28.24-27.299 0-48.95-13.65-48.95-38.595 0-25.887 32.477-36.242 58.834-45.185 48.479-16.474 103.078-38.125 103.078-104.49 0-72.484-65.894-102.136-120.493-102.136-49.892 0-87.546 17.415-123.317 52.716l39.537 38.125c28.711-27.77 50.362-40.478 84.251-40.478 29.182 0 58.364 14.12 58.364 48.48 0 31.535-33.418 43.302-67.777 55.54-44.243 16.003-90.84 37.654-90.84 94.606 0 62.6 49.892 91.782 104.019 91.782 40.949 0 74.367-12.708 106.372-36.713l-34.359-41.89zM731.429 569.905h105.662c56.97 0 124.652-27.755 124.652-104.201 0-76.934-67.195-104.688-124.652-104.688h-45.284v-131.956h-60.378v340.846zM791.807 518.291v-105.662h34.085c41.388 0 72.065 13.634 72.065 51.614 0 33.598-25.32 54.048-62.326 54.048h-43.823z" />
<glyph unicode="&#xe925;" glyph-name="sip-outbound-a" horiz-adv-x="1219" d="M1065.154 918.689h-673.159c-12.366 24.415-37.739 41.311-67.36 41.311-41.696 0-75.507-33.22-75.507-74.16 0-40.997 33.811-74.217 75.507-74.217 29.621 0 54.993 16.925 67.36 41.311h673.159c47.952 0 86.942-38.338 86.942-85.424v-680.303c0-47.115-38.99-85.424-86.942-85.424h-869.244c-47.952 0-86.971 38.309-86.971 85.424v474.32c24.849 12.15 42.074 37.080 42.074 66.183 0 40.968-33.811 74.188-75.536 74.188-41.696 0-75.478-33.22-75.478-74.188 0-29.075 17.196-54.005 42.016-66.183v-474.32c0-83.394 69.018-151.207 153.894-151.207h869.244c84.876 0 153.894 67.813 153.894 151.207v680.303c0 83.365-69.018 151.179-153.894 151.179zM429.105 589.41l43.442-40.96 111.709 105.326v-132.632h62.061v132.632l111.709-105.326 43.442 40.96-186.182 175.543zM585.143 472.381v-340.846h62.061v340.846zM492.138 393.778c-16.944 15.062-43.302 28.24-68.719 28.24-27.299 0-48.95-13.65-48.95-38.595 0-25.887 32.477-36.242 58.834-45.185 48.479-16.474 103.078-38.125 103.078-104.49 0-72.484-65.894-102.136-120.493-102.136-49.892 0-87.546 17.415-123.317 52.716l39.537 38.125c28.711-27.77 50.362-40.478 84.251-40.478 29.182 0 58.364 14.12 58.364 48.48 0 31.535-33.418 43.302-67.777 55.54-44.243 16.003-90.84 37.654-90.84 94.606 0 62.6 49.892 91.782 104.019 91.782 40.949 0 74.367-12.708 106.372-36.713l-34.359-41.89zM707.048 472.381h105.662c56.97 0 124.652-27.755 124.652-104.201 0-76.934-67.195-104.688-124.652-104.688h-45.284v-131.956h-60.378v340.846zM767.426 420.767v-105.662h34.085c41.388 0 72.065 13.634 72.065 51.614 0 33.598-25.32 54.048-62.326 54.048h-43.823z" />
<glyph unicode="&#xe926;" glyph-name="sip-outbound-b" horiz-adv-x="1170" d="M563.561 918.689c-11.872 24.415-36.229 41.311-64.665 41.311-40.028 0-72.486-33.163-72.486-74.16s32.458-74.217 72.486-74.217c28.436 0 52.794 16.925 64.665 41.311h458.987c46.034 0 83.464-38.338 83.464-85.424v-680.303c0-47.115-37.43-85.424-83.464-85.424h-834.474c-46.034 0-83.492 38.309-83.492 85.424v376.796c23.855 12.15 40.391 37.080 40.391 66.183 0 40.968-32.458 74.188-72.514 74.188-40.028 0-72.458-33.22-72.458-74.188 0-29.075 16.508-54.005 40.335-66.183v-376.796c0-83.394 66.257-151.207 147.738-151.207h834.474c81.481 0 147.738 67.813 147.738 151.207v680.303c0 83.365-66.257 151.179-147.738 151.179h-458.987zM125.211 617.952l60.202 1.771 4.553 154.806 129.385-129.385 44.266 44.266-129.385 129.385 154.806 4.553 1.771 60.202-258.010-7.589zM585.143 569.905v-340.846h62.061v340.846zM492.138 491.302c-16.944 15.062-43.302 28.24-68.719 28.24-27.299 0-48.95-13.65-48.95-38.595 0-25.887 32.477-36.242 58.834-45.185 48.479-16.474 103.078-38.125 103.078-104.49 0-72.484-65.894-102.136-120.493-102.136-49.892 0-87.546 17.415-123.317 52.716l39.537 38.125c28.711-27.77 50.362-40.478 84.251-40.478 29.182 0 58.364 14.12 58.364 48.48 0 31.535-33.418 43.302-67.777 55.54-44.243 16.003-90.84 37.654-90.84 94.606 0 62.6 49.892 91.782 104.019 91.782 40.949 0 74.367-12.708 106.372-36.713l-34.359-41.89zM731.429 569.905h105.662c56.97 0 124.652-27.755 124.652-104.201 0-76.934-67.195-104.688-124.652-104.688h-45.284v-131.956h-60.378v340.846zM791.807 518.291v-105.662h34.085c41.388 0 72.065 13.634 72.065 51.614 0 33.598-25.32 54.048-62.326 54.048h-43.823z" />
<glyph unicode="&#xe927;" glyph-name="sip-outbound-up" d="M60.235 589.171h60.235v-532.7c0-33.267 26.968-60.235 60.235-60.235h722.824c33.267 0 60.235 26.968 60.235 60.235v722.824c0 33.267-26.968 60.235-60.235 60.235h-468.445v60.235h468.445c66.534 0 120.471-53.937 120.471-120.471v-722.824c0-66.534-53.937-120.471-120.471-120.471h-722.824c-66.534 0-120.471 53.937-120.471 120.471v532.7zM180.706 568.471c0-49.901-40.452-90.353-90.353-90.353s-90.353 40.452-90.353 90.353c0 49.901 40.452 90.353 90.353 90.353s90.353-40.452 90.353-90.353zM542.118 869.647c0-49.901-40.452-90.353-90.353-90.353s-90.353 40.452-90.353 90.353c0 49.901 40.452 90.353 90.353 90.353s90.353-40.452 90.353-90.353zM733.785 268.808l-259.816 259.816h238.52v59.63h-340.742v-340.742h59.63v238.52l259.816-259.816z" />
<glyph unicode="&#xe928;" glyph-name="sip-inbound-up" d="M60.235 589.171h60.235v-532.7c0-33.267 26.968-60.235 60.235-60.235h722.824c33.267 0 60.235 26.968 60.235 60.235v722.824c0 33.267-26.968 60.235-60.235 60.235h-468.445v60.235h468.445c66.534 0 120.471-53.937 120.471-120.471v-722.824c0-66.534-53.937-120.471-120.471-120.471h-722.824c-66.534 0-120.471 53.937-120.471 120.471v532.7zM180.706 568.471c0-49.901-40.452-90.353-90.353-90.353s-90.353 40.452-90.353 90.353c0 49.901 40.452 90.353 90.353 90.353s90.353-40.452 90.353-90.353zM542.118 869.647c0-49.901-40.452-90.353-90.353-90.353s-90.353 40.452-90.353 90.353c0 49.901 40.452 90.353 90.353 90.353s90.353-40.452 90.353-90.353zM350.45 566.957l259.816-259.816h-238.52v-59.63h340.742v340.742h-59.63v-238.52l-259.816 259.816z" />
</font>
</defs>
</svg>
