<?xml version="1.0" encoding="UTF-8"?>
<svg width="19px" height="16px" viewBox="0 0 19 16" version="1.1" xmlns="http://www.w3.org/2000/svg" xmlns:xlink="http://www.w3.org/1999/xlink">
    <title>ic/10 dlc/unselected</title>
    <g id="SMS" stroke="none" stroke-width="1" fill="none" fill-rule="evenodd">
        <g id="SMS-10DLC-details" transform="translate(-81.000000, -337.000000)" fill="#788599">
            <g id="Menu-Bar" transform="translate(80.000000, 24.000000)">
                <g id="logs-copy-2" transform="translate(0.000000, 285.000000)">
                    <g id="ic/10-dlc/unselected" transform="translate(1.000000, 28.000000)">
                        <path d="M17.785,4.17443857e-14 C18.113,4.17443857e-14 18.38,0.266 18.38,0.594 L18.38,0.594 L18.38,11.374 C18.38,11.703 18.113,11.969 17.785,11.969 L17.785,11.969 L12.937,11.969 L8.683,14.964 C8.289,15.241 7.746,14.959 7.746,14.477 L7.746,14.477 L7.746,11.969 L0.595,11.969 C0.267,11.969 5.5067062e-14,11.703 5.5067062e-14,11.374 L5.5067062e-14,11.374 L5.5067062e-14,0.594 C5.5067062e-14,0.266 0.267,4.17443857e-14 0.595,4.17443857e-14 L0.595,4.17443857e-14 Z M3.19952267,2 C1.96229117,2.77136038 1,3.88639618 1,5.68114558 C1,7.48353222 1.97756563,8.62147971 3.21479714,9.37756563 L3.58902148,8.60620525 C2.76420048,8.07923628 2.05393795,7.17040573 2.05393795,5.68114558 C2.05393795,4.19188544 2.78711217,3.29069212 3.59665871,2.76372315 L3.19952267,2 Z M14.8004773,2 L14.4033413,2.76372315 C15.2128878,3.29069212 15.9460621,4.19188544 15.9460621,5.68114558 C15.9460621,7.17040573 15.2357995,8.07923628 14.4109785,8.60620525 L14.7852029,9.37756563 C16.0224344,8.62147971 17,7.48353222 17,5.68114558 C17,3.88639618 16.0377088,2.77136038 14.8004773,2 Z M12.1579952,2.86300716 C11.4706444,2.86300716 10.8367542,3.22195704 10.6229117,3.89403341 L11.5393795,4.29116945 C11.6004773,3.9627685 11.8448687,3.77947494 12.150358,3.77947494 C12.5551313,3.77947494 12.7918854,4.03150358 12.7918854,4.34463007 C12.7918854,4.65011933 12.5856802,4.87159905 12.2649165,4.94797136 C12.1274463,4.98615752 11.9059666,5.00906921 11.6692124,5.00906921 L11.6692124,5.89498807 C11.8143198,5.86443914 11.9823389,5.85680191 12.0739857,5.85680191 C12.6162291,5.85680191 13.0057279,6.10119332 13.0057279,6.56706444 C13.0057279,6.97947494 12.6620525,7.20095465 12.2801909,7.20095465 C11.8906921,7.20095465 11.6004773,6.98711217 11.4477327,6.62052506 L10.5389021,7.04057279 C10.8443914,7.75083532 11.5546539,8.11742243 12.2725537,8.11742243 C13.273031,8.11742243 14.1054893,7.54463007 14.1054893,6.55942721 C14.1054893,6.00190931 13.7694511,5.49785203 13.2501193,5.30692124 C13.6243437,5.09307876 13.8763723,4.65775656 13.8763723,4.22243437 C13.8763723,3.3823389 13.0515513,2.86300716 12.1579952,2.86300716 Z M5.7274463,2.95465394 L5.01718377,2.95465394 C4.65059666,3.16085919 4.25346062,3.36706444 3.92505967,3.53508353 L3.92505967,4.51264916 C4.13126492,4.42863962 4.41384248,4.30644391 4.64295943,4.19952267 L4.64295943,8.02577566 L5.7274463,8.02577566 L5.7274463,2.95465394 Z M8.28591885,2.86300716 C7.43818616,2.86300716 6.68210024,3.42816229 6.61336516,4.30644391 L7.6902148,4.48210024 C7.6902148,4.04677804 7.91169451,3.76420048 8.27064439,3.76420048 C8.59140811,3.76420048 8.82816229,3.97040573 8.82816229,4.28353222 C8.82816229,4.58138425 8.64486874,4.9097852 8.46157518,5.17708831 C8.01097852,5.82625298 7.32362768,6.61288783 6.73556086,7.22386635 L6.73556086,8.02577566 L10.1417661,8.02577566 L10.1417661,7.11694511 L8.18663484,7.11694511 C8.59904535,6.67398568 9.04200477,6.1928401 9.40859189,5.68114558 C9.70644391,5.26109785 9.92792363,4.77231504 9.92792363,4.26825776 C9.92792363,3.36706444 9.12601432,2.86300716 8.28591885,2.86300716 Z" id="Combined-Shape"></path>
                    </g>
                </g>
            </g>
        </g>
    </g>
</svg>
