<svg xmlns="http://www.w3.org/2000/svg" width="20" height="20" viewBox="0 0 20 20">
    <g fill="#1FA028" fill-rule="evenodd">
        <path d="M17.783 14.425l-.729-.081a2.408 2.408 0 0 0-.204-.568l.447-.567v-.122l-.77-.77h-.123l-.567.445a2.336 2.336 0 0 0-.568-.202l-.08-.73-.082-.081h-1.054l-.082.08-.08.73c-.204.04-.406.122-.568.203l-.568-.445h-.12l-.772.77v.122l.486.567a1.407 1.407 0 0 0-.243.568l-.73.08-.08.082v1.054l.08.08.73.082c.04.203.121.406.243.568l-.486.568v.122l.771.77h.121l.568-.487c.162.122.364.203.567.244l.081.73.082.08h1.054l.081-.08.081-.73c.202-.041.406-.122.568-.244l.567.487h.122l.771-.77v-.122l-.447-.568c.081-.162.162-.365.204-.568l.73-.081.08-.081v-1.054l-.08-.081zm-3.203 1.784a1.176 1.176 0 1 1 0-2.352 1.176 1.176 0 0 1 0 2.352zM7.184 1.683a3.788 3.788 0 1 1 .124 7.574 3.788 3.788 0 0 1-.124-7.574M10.416 15.033c0-1.322.628-2.486 1.588-3.249a5.258 5.258 0 0 0-1.846-2.015c-.923.644-1.704 1.153-2.891 1.128-.996-.02-1.972-.277-2.74-.925a.207.207 0 0 1-.072-.12 5.224 5.224 0 0 0-2.318 4.43l.05 1.462c.006.36.303.647.663.642h7.81a4.136 4.136 0 0 1-.244-1.353"/>
        <path d="M17.783 14.425l-.729-.081a2.408 2.408 0 0 0-.204-.568l.447-.567v-.122l-.77-.77h-.123l-.567.445a2.336 2.336 0 0 0-.568-.202l-.08-.73-.082-.081h-1.054l-.082.08-.08.73c-.204.04-.406.122-.568.203l-.568-.445h-.12l-.772.77v.122l.486.567a1.407 1.407 0 0 0-.243.568l-.73.08-.08.082v1.054l.08.08.73.082c.04.203.121.406.243.568l-.486.568v.122l.771.77h.121l.568-.487c.162.122.364.203.567.244l.081.73.082.08h1.054l.081-.08.081-.73c.202-.041.406-.122.568-.244l.567.487h.122l.771-.77v-.122l-.447-.568c.081-.162.162-.365.204-.568l.73-.081.08-.081v-1.054l-.08-.081zm-3.203 1.784a1.176 1.176 0 1 1 0-2.352 1.176 1.176 0 0 1 0 2.352zM7.184 1.683a3.788 3.788 0 1 1 .124 7.574 3.788 3.788 0 0 1-.124-7.574M10.416 15.033c0-1.322.628-2.486 1.588-3.249a5.258 5.258 0 0 0-1.846-2.015c-.923.644-1.704 1.153-2.891 1.128-.996-.02-1.972-.277-2.74-.925a.207.207 0 0 1-.072-.12 5.224 5.224 0 0 0-2.318 4.43l.05 1.462c.006.36.303.647.663.642h7.81a4.136 4.136 0 0 1-.244-1.353"/>
    </g>
</svg>
