<svg xmlns="http://www.w3.org/2000/svg" xmlns:xlink="http://www.w3.org/1999/xlink" width="18" height="16" viewBox="0 0 18 16">
    <defs>
        <path id="a" d="M0 20h20V0H0z"/>
    </defs>
    <g fill="none" fill-rule="evenodd" transform="translate(-1 -2)">
        <path fill="#78859A" d="M10 4.832a.71.71 0 1 1-.002-1.422.71.71 0 0 1 .003 1.422m0-2.33c-.813 0-1.473.659-1.473 1.472v2.322h2.944V3.974c0-.813-.66-1.472-1.471-1.472"/>
        <mask id="b" fill="#fff">
            <use xlink:href="#a"/>
        </mask>
        <path fill="#78859A" d="M10 11.594h7.011v-1.338H10v1.338zm.001 2.692h4.995v-1.338h-4.995v1.338zm-1.642 1.605H3.928a.317.317 0 0 1-.321-.311l-.025-.71a2.538 2.538 0 0 1 1.125-2.149.1.1 0 0 0 .036.058c.372.315.845.439 1.328.45.576.011.955-.235 1.403-.548a2.539 2.539 0 0 1 1.186 2.105l.01.783a.316.316 0 0 1-.311.322zM6.031 9.007a1.837 1.837 0 1 1 .06 3.674 1.837 1.837 0 0 1-.06-3.674zm-4.206 8.491h16.351V7.03H1.825v10.468z" mask="url(#b)"/>
    </g>
</svg>
