<svg xmlns="http://www.w3.org/2000/svg" width="24" height="24" viewBox="0 0 24 24">
    <g fill="none" fill-rule="evenodd">
        <path d="M0 0h24v24H0z"/>
        <path fill="#788599" fill-rule="nonzero" d="M7.667 16c0 .367.3.667.666.667H9V19c0 .553.447 1 1 1 .553 0 1-.447 1-1v-2.333h1.333V19c0 .553.447 1 1 1 .554 0 1-.447 1-1v-2.333H15c.367 0 .667-.3.667-.667V9.333h-8V16zM6 9.333c-.553 0-1 .447-1 1V15c0 .553.447 1 1 1 .553 0 1-.447 1-1v-4.667c0-.553-.447-1-1-1zm11.333 0c-.553 0-1 .447-1 1V15c0 .553.447 1 1 1 .554 0 1-.447 1-1v-4.667c0-.553-.446-1-1-1zM14.02 5.44l.867-.867a.33.33 0 0 0 0-.473.33.33 0 0 0-.474 0l-.986.987a3.893 3.893 0 0 0-1.76-.42c-.64 0-1.24.153-1.774.42L8.9 4.1a.33.33 0 0 0-.473 0 .33.33 0 0 0 0 .473l.873.874a3.989 3.989 0 0 0-1.633 3.22h8c0-1.327-.647-2.5-1.647-3.227zm-3.687 1.893h-.666v-.666h.666v.666zm3.334 0H13v-.666h.667v.666z"/>
    </g>
</svg>
