<svg xmlns="http://www.w3.org/2000/svg" width="24" height="24" viewBox="0 0 24 24">
    <g fill="#E6E6F3" fill-rule="evenodd">
        <path d="M9.056 10.444h-5a1.388 1.388 0 0 1-1.39-1.389v-5a1.39 1.39 0 0 1 1.39-1.389h5a1.39 1.39 0 0 1 1.388 1.389v5a1.39 1.39 0 0 1-1.388 1.389M19.979 10.444h-5a1.388 1.388 0 0 1-1.39-1.389v-5a1.39 1.39 0 0 1 1.39-1.389h5a1.39 1.39 0 0 1 1.389 1.389v5a1.39 1.39 0 0 1-1.39 1.389M9.056 21.367h-5a1.388 1.388 0 0 1-1.39-1.389v-5c0-.767.622-1.389 1.39-1.389h5a1.39 1.39 0 0 1 1.388 1.389v5a1.39 1.39 0 0 1-1.388 1.39M19.979 21.367h-5a1.388 1.388 0 0 1-1.39-1.389v-5c0-.767.622-1.389 1.39-1.389h5a1.39 1.39 0 0 1 1.389 1.389v5a1.39 1.39 0 0 1-1.39 1.39"/>
    </g>
</svg>
