<svg xmlns="http://www.w3.org/2000/svg" width="20" height="20" viewBox="0 0 20 20">
    <path fill="#788599" fill-rule="evenodd" d="M13.053 12.533c.244.225.551.52.956.52.482 0 .67-.183.67-.464 0-.356-.486-.462-.975-.643-.487-.182-.975-.45-.975-1.125 0-.768.513-1.168 1.195-1.23v-.6h.562v.611c.4.063.742.225 1.098.488l-.543.675c-.261-.207-.543-.382-.9-.382-.217 0-.444.131-.444.382 0 .268.489.356.983.55.505.194 1.024.5 1.024 1.218 0 .775-.6 1.187-1.261 1.3v.631h-.563v-.606c-.583-.044-1.019-.294-1.45-.719l.623-.606zm.387-6.762h2.093V4.614H13.44v1.157zm-.52 2.306h2.613V6.92H12.92v1.157zM4.468 5.771h6.605V4.614H4.468v1.157zm0 8.478h5.822v-1.765H4.466v1.765zm0-6.172h4.498V6.92H4.467v1.157zM3.293 1.943v15.21l.9.898.966-.965.97.971.972-.97.966.964.965-.965.969.97.97-.97.964.965.966-.965.971.971.971-.97.966.964.9-.899V1.943H3.291z"/>
</svg>
