<svg xmlns="http://www.w3.org/2000/svg" xmlns:xlink="http://www.w3.org/1999/xlink" width="24" height="24" viewBox="0 0 24 24">
    <defs>
        <path id="a" d="M0 24h24V0H0z"/>
    </defs>
    <g fill="none" fill-rule="evenodd">
        <path fill="#E6E6F3" d="M20.6 12.159l-8.603 4.69-8.56-4.697a.676.676 0 0 0-.578.663v8.583c0 .379.307.686.687.686h16.909a.687.687 0 0 0 .686-.686v-8.583a.676.676 0 0 0-.541-.656"/>
        <mask id="b" fill="#fff">
            <use xlink:href="#a"/>
        </mask>
        <path fill="#E6E6F3" d="M11.543 6.792h6.797v-1.07h-6.797v1.07zm0 2.29h6.797v-1.07h-6.797v1.07zm-2.867.976v.836h-.743v-.802c-.769-.059-1.346-.389-1.916-.95l.827-.802c.32.298.726.685 1.263.685.636 0 .883-.239.883-.61 0-.471-.644-.611-1.288-.851s-1.29-.594-1.29-1.487c0-1.017.679-1.545 1.579-1.627v-.794h.744v.81c.528.083.983.298 1.453.645l-.719.891C9.122 5.73 8.752 5.5 8.28 5.5c-.29 0-.586.172-.586.502 0 .356.644.472 1.296.728.669.256 1.355.66 1.355 1.61 0 1.025-.793 1.57-1.669 1.718zm10.68-7.582H4.59a.636.636 0 0 0-.636.636V10.668l8.018 4.402 8.02-4.373V3.112a.636.636 0 0 0-.636-.636z" mask="url(#b)"/>
    </g>
</svg>
