<svg xmlns="http://www.w3.org/2000/svg" width="20" height="20" viewBox="0 0 20 20">
    <g fill="none" fill-rule="evenodd">
        <path fill="#FFF" fill-opacity=".01" d="M0 20h20V0H0z"/>
        <path fill="#78859A" d="M6.191 6.472h-.719V8.19h.27c.395 0 .825 0 1.115-.15.226-.119.364-.312.364-.655 0-.57-.353-.913-1.03-.913zm-.719-1.375h.312c.793 0 1.223-.257 1.223-.772 0-.312-.107-.505-.268-.624-.247-.17-.634-.17-1.053-.17h-.214v1.566zm-1.74-2.995h2.052c.73 0 1.492.118 2.05.483.612.397.913 1 .913 1.686a1.55 1.55 0 0 1-.86 1.396A1.804 1.804 0 0 1 9.07 7.352c0 .903-.559 1.611-1.397 1.965-.569.237-1.298.301-1.975.301H3.732V2.102zM12.688 9.618V6.493l-2.372-4.39h2.137l1.17 2.533h.021l1.311-2.534h2.017l-2.544 4.456v3.06zM6.59 12.214c-1.108 0-1.916.954-1.916 2.16 0 1.208.808 2.16 1.917 2.16 1.11 0 1.918-.952 1.918-2.16 0-1.206-.808-2.16-1.918-2.16m0 5.684C4.558 17.898 3 16.32 3 14.375c0-1.947 1.558-3.523 3.59-3.523 2.036 0 3.593 1.576 3.593 3.523 0 1.946-1.557 3.523-3.592 3.523M16.115 12.788c-.409-.34-.896-.574-1.432-.574-1.129 0-1.946.963-1.946 2.16 0 1.256.691 2.161 1.937 2.161.516 0 1.042-.224 1.43-.593l.896 1.13c-.7.544-1.519.826-2.394.826-2.054 0-3.543-1.47-3.543-3.524 0-1.985 1.615-3.523 3.611-3.523.828 0 1.479.263 2.2.72l-.759 1.217z"/>
    </g>
</svg>
