<svg xmlns="http://www.w3.org/2000/svg" xmlns:xlink="http://www.w3.org/1999/xlink" width="20" height="20" viewBox="0 0 20 20">
    <defs>
        <path id="a" d="M0 0h18.116v19.237H.001z"/>
    </defs>
    <g fill="none" fill-rule="evenodd">
        <path fill="#FFF" fill-opacity=".01" d="M0 20h20V0H0z"/>
        <g transform="translate(1)">
            <mask id="b" fill="#fff">
                <use xlink:href="#a"/>
            </mask>
            <path fill="#78859A" d="M8.537 7H7.401V2.992c-.24.112-.536.24-.752.328V2.296c.344-.176.76-.392 1.144-.608h.744V7zm4.624-.952V7H9.593v-.84c.616-.64 1.336-1.464 1.808-2.144.192-.28.384-.624.384-.936 0-.328-.248-.544-.584-.544-.376 0-.608.296-.608.752l-1.128-.184c.072-.92.864-1.512 1.752-1.512.88 0 1.72.528 1.72 1.472 0 .528-.232 1.04-.544 1.48-.384.536-.848 1.04-1.28 1.504h2.048zm1.84-1.28V3.84c.248 0 .48-.024.624-.064.336-.08.552-.312.552-.632 0-.328-.248-.592-.672-.592a.623.623 0 0 0-.64.536l-.96-.416c.224-.704.888-1.08 1.608-1.08.936 0 1.8.544 1.8 1.424 0 .456-.264.912-.656 1.136.544.2.896.728.896 1.312 0 1.032-.872 1.632-1.92 1.632-.752 0-1.496-.384-1.816-1.128l.952-.44c.16.384.464.608.872.608.4 0 .76-.232.76-.664 0-.488-.408-.744-.976-.744-.096 0-.272.008-.424.04z" mask="url(#b)"/>
            <path fill="#78859A" d="M8.537 7H7.401V2.992c-.24.112-.536.24-.752.328V2.296c.344-.176.76-.392 1.144-.608h.744V7zm4.624-.952V7H9.593v-.84c.616-.64 1.336-1.464 1.808-2.144.192-.28.384-.624.384-.936 0-.328-.248-.544-.584-.544-.376 0-.608.296-.608.752l-1.128-.184c.072-.92.864-1.512 1.752-1.512.88 0 1.72.528 1.72 1.472 0 .528-.232 1.04-.544 1.48-.384.536-.848 1.04-1.28 1.504h2.048zm1.84-1.28V3.84c.248 0 .48-.024.624-.064.336-.08.552-.312.552-.632 0-.328-.248-.592-.672-.592a.623.623 0 0 0-.64.536l-.96-.416c.224-.704.888-1.08 1.608-1.08.936 0 1.8.544 1.8 1.424 0 .456-.264.912-.656 1.136.544.2.896.728.896 1.312 0 1.032-.872 1.632-1.92 1.632-.752 0-1.496-.384-1.816-1.128l.952-.44c.16.384.464.608.872.608.4 0 .76-.232.76-.664 0-.488-.408-.744-.976-.744-.096 0-.272.008-.424.04zM3.3 8.01c3.43.355 6.786.711 10.216 1.066a273.912 273.912 0 0 0-.644 3.271c-.07.356-.07.925-.285.996-.286.284-1.357.142-1.929.142H4.506c0 .284.215.64.215 1.067h6.106c.715 0 1.572-.072 1.572.497 0 .711-.929.57-1.714.57H6.157c-.57 0-1.714.07-2.143-.143-.214-.142-.285-.498-.357-.924-.572-2.63-1.143-5.12-1.643-7.75-.429-.356-1.929-.214-2-.925-.07-.284.142-.569.5-.64.357 0 .714.213 1.214.356.428.142 1.001.213 1.143.426.143.284.143.711.214.995.071.356.215.641.215.996M10.715 16.388c.732 0 1.393.51 1.466 1.313 0 .875-.66 1.604-1.466 1.532-.88 0-1.76-.876-1.319-1.97.146-.438.66-.802 1.32-.875M5.055 16.234c.948-.153 1.751.538 1.751 1.382 0 1.92-2.553 1.996-2.845.384-.073-.154-.073-.384 0-.768.146-.384.511-.921 1.094-.998" mask="url(#b)"/>
        </g>
    </g>
</svg>
