<svg xmlns="http://www.w3.org/2000/svg" width="24" height="24" viewBox="0 0 24 24">
    <g fill="none" fill-rule="evenodd">
        <path fill="#FFF" fill-opacity=".01" d="M0 24h24V0H0z"/>
        <path fill="#2BB031" d="M15.498 18.1c0 .603-.425 1.093-.95 1.093-.524 0-.949-.49-.949-1.093v-6.887c0-.604.425-1.092.95-1.092.524 0 .949.488.949 1.092V18.1zm-5.097 0c0 .603-.426 1.093-.95 1.093-.523 0-.948-.49-.948-1.093v-6.887c0-.604.425-1.092.949-1.092.523 0 .95.488.95 1.092V18.1zM5.72 7.807l.46 13.018a.803.803 0 0 0 .802.775h10.072a.802.802 0 0 0 .801-.776l.426-13.017H5.72zM15.56 3.827L14.656 2.4h-5.31l-.906 1.427H4.672v2.097h14.656V3.827z"/>
    </g>
</svg> 