<svg xmlns="http://www.w3.org/2000/svg" width="24" height="24" viewBox="0 0 24 24">
    <g fill="#E6E6F3" fill-rule="evenodd">
        <path d="M17.692 5.282v15.262a.331.331 0 0 1-.226.314l-7.578 2.468h11.175a.332.332 0 0 0 .33-.332V5.282h-3.701z"/>
        <path d="M12.622 7.398a.142.142 0 0 1-.096.134L5.952 9.83a.142.142 0 0 1-.189-.134V6.551c0-.06.04-.115.096-.135l6.575-2.23a.142.142 0 0 1 .188.134v3.078zM14.938.852L3.191 4.814a.4.4 0 0 0-.273.38V22.77a.4.4 0 0 0 .528.38l11.747-3.936a.4.4 0 0 0 .273-.379V1.231a.4.4 0 0 0-.528-.379z"/>
    </g>
</svg>
