<svg xmlns="http://www.w3.org/2000/svg" width="14" height="14" viewBox="0 0 14 14">
    <g fill="#788599" fill-rule="nonzero">
        <path d="M10.08 0H.56A.56.56 0 0 0 0 .56v9.52c0 .31.25.56.56.56h9.52c.31 0 .56-.25.56-.56V.56a.56.56 0 0 0-.56-.56zm-.56 9.52h-8.4v-8.4h8.4v8.4zM12.88 11.48v1.4h-1.4V14h1.96c.31 0 .56-.25.56-.56v-1.96h-1.12zM7.174 12.88h3.013V14H7.174zM4.48 12.88v-1.4H3.36v1.96c0 .31.25.56.56.56h1.96v-1.12h-1.4zM13.44 3.36h-1.96v1.12h1.4v1.4H14V3.92a.56.56 0 0 0-.56-.56zM12.88 7.174H14v3.013h-1.12z"/>
    </g>
</svg>
