<svg xmlns="http://www.w3.org/2000/svg" width="24" height="24" viewBox="0 0 24 24">
    <g fill="#E6E6F3" fill-rule="evenodd">
        <path d="M12.005 21.394c-5.191.01-9.396-4.187-9.403-9.384-.006-5.181 4.217-9.408 9.396-9.404 5.158.004 9.389 4.225 9.4 9.378.012 5.177-4.204 9.4-9.393 9.41M11.998.71C5.775.706.698 5.785.706 12.01c.008 6.247 5.06 11.29 11.3 11.278 6.236-.012 11.303-5.087 11.288-11.308C23.28 5.788 18.196.716 11.998.71"/>
        <path d="M14.531 11.805c-.356.325-.81.584-1.298.844v1.071h-2.645v-2.37c.762-.259 1.412-.519 1.866-.843.341-.244.536-.504.536-1.072 0-.55-.276-1.07-.975-1.07-.648 0-1.005.454-1.005 1.216v.407H8.462v-.342c0-2.077 1.493-3.424 3.553-3.424 2.224 0 3.523 1.655 3.523 3.165 0 1.168-.39 1.882-1.007 2.418zm-4.007 5.972H13.3v-2.629h-2.775v2.63zM11.998 3.92c-4.454-.004-8.087 3.632-8.082 8.09a8.07 8.07 0 0 0 8.09 8.071c4.462-.009 8.087-3.642 8.078-8.094-.01-4.433-3.65-8.063-8.086-8.067z"/>
    </g>
</svg>
