<svg xmlns="http://www.w3.org/2000/svg" width="20" height="20" viewBox="0 0 20 20">
    <g fill="none" fill-rule="evenodd">
        <path fill="#FFF" fill-opacity=".01" d="M0 20h20V0H0z"/>
        <path fill="#78859A" d="M15.763 2.427H8.48a1.827 1.827 0 0 0-1.59-.937 1.837 1.837 0 0 0 0 3.673c.683 0 1.272-.379 1.59-.933l7.293.006-.01 11.537-11.536-.01V8.747c.557-.316.936-.906.936-1.592a1.836 1.836 0 0 0-3.672 0c0 .685.38 1.275.935 1.591v7.017c0 .998.813 1.81 1.811 1.81h11.526c.998 0 1.811-.812 1.811-1.81V4.236c0-.997-.813-1.809-1.81-1.809"/>
        <path fill="#78859A" d="M14.192 14.215V8.373l-2.37 2.222L7.717 6.49 6.444 7.763l4.064 4.064-2.546 2.388z"/>
    </g>
</svg>
