<svg xmlns="http://www.w3.org/2000/svg" width="20" height="20" viewBox="0 0 20 20">
    <g fill="none" fill-rule="evenodd">
        <path fill="#FFF" fill-opacity=".01" d="M0 20h20V0H0z"/>
        <path fill="#1FA028" d="M5.053 7.533c.245.225.551.52.957.52.48 0 .67-.183.67-.464 0-.356-.487-.462-.975-.643-.487-.182-.976-.45-.976-1.125 0-.768.513-1.168 1.194-1.23v-.6h.563v.611c.4.063.743.225 1.099.488l-.543.675c-.263-.207-.545-.382-.9-.382-.219 0-.445.131-.445.382 0 .268.489.356.982.55.505.194 1.024.5 1.024 1.218 0 .775-.599 1.187-1.26 1.3v.631H5.88v-.606c-.582-.044-1.018-.294-1.45-.719l.623-.606zm4.238.544h6.242V6.92H9.29v1.157zm0-2h6.242V4.92H9.29v1.157zM4.467 14.25h10.824v-1.765H4.468v1.765zM3.293 1.943v15.21h13.416V1.942H3.291z"/>
    </g>
</svg>
