<svg xmlns="http://www.w3.org/2000/svg" xmlns:xlink="http://www.w3.org/1999/xlink" width="20" height="20" viewBox="0 0 20 20">
    <defs>
        <path id="a" d="M0 0h14v14.824H0z"/>
    </defs>
    <g fill="none" fill-rule="evenodd">
        <g transform="translate(3 3)">
            <mask id="b" fill="#fff">
                <use xlink:href="#a"/>
            </mask>
            <path fill="#78859A" d="M12.561 14.824H1.44a1.439 1.439 0 0 1-1.44-1.44V1.44C0 .644.645 0 1.44 0H12.56C13.356 0 14 .644 14 1.439v11.946c0 .795-.644 1.439-1.439 1.439" mask="url(#b)"/>
        </g>
        <path fill="#FFF" d="M5.013 15.816v-4.883c-.272.145-.643.29-.888.398v-.888c.363-.18.815-.416 1.223-.643h.625v6.016h-.96zM11.192 15.816H7.314v-.815c.698-.734 1.54-1.658 2.102-2.474.236-.344.525-.815.525-1.223 0-.498-.444-.779-.905-.779-.48 0-.888.371-.888.915l-.952-.181c.073-.951.978-1.567 1.866-1.567.961 0 1.858.625 1.858 1.612 0 .562-.29 1.169-.635 1.659-.497.706-1.096 1.386-1.684 2.02h2.59v.833zM13.02 12.283c.363-.01.608-.027.825-.082.454-.127.762-.444.762-.86 0-.453-.38-.807-.943-.807-.425 0-.797.227-.924.634l-.815-.335c.244-.689.915-1.141 1.758-1.141 1.086 0 1.901.625 1.901 1.612 0 .535-.298 1.033-.752 1.278a1.562 1.562 0 0 1 1.043 1.485c0 1.169-.924 1.857-2.048 1.857-.78 0-1.585-.352-1.948-1.068l.77-.408c.236.435.662.634 1.133.634.58 0 1.123-.308 1.123-.96 0-.59-.543-.988-1.241-.988-.18 0-.389.01-.643.064v-.915z"/>
        <path stroke="#FFF" stroke-width="1.5" d="M10.824 5.882L12.47 7.53l2.882-2.882"/>
    </g>
</svg>
