<svg xmlns="http://www.w3.org/2000/svg" width="20" height="20" viewBox="0 0 20 20">
    <g fill="none" fill-rule="evenodd">
        <path fill="#FFF" fill-opacity=".01" d="M0 20h20V0H0z"/>
        <path fill="#78859A" d="M15.764 2.427H8.48a1.826 1.826 0 0 0-1.591-.937 1.837 1.837 0 0 0 0 3.673c.684 0 1.273-.379 1.59-.933l7.294.006-.009 11.537-11.537-.01V8.747c.557-.316.936-.906.936-1.592a1.836 1.836 0 1 0-3.672 0c0 .685.379 1.275.935 1.591v7.017c0 .998.813 1.81 1.811 1.81h11.527c.998 0 1.81-.812 1.81-1.81V4.236c0-.997-.812-1.809-1.81-1.809"/>
        <path fill="#78859A" d="M6.779 6.814v5.841l2.369-2.221 4.105 4.105 1.273-1.274-4.063-4.064 2.545-2.388z"/>
    </g>
</svg>
