<svg xmlns="http://www.w3.org/2000/svg" xmlns:xlink="http://www.w3.org/1999/xlink" width="18" height="19" viewBox="0 0 18 19">
    <defs>
        <path id="a" d="M0 20h20V0H0z"/>
    </defs>
    <g fill="none" fill-rule="evenodd" transform="translate(-1 -1)">
        <path fill="#78859A" d="M3.653 16.84H2.538a.576.576 0 0 1-.577-.578v-4.235c0-.355.288-.643.642-.643h1.05v5.455zM16.346 16.84h1.116a.576.576 0 0 0 .576-.578v-4.235a.642.642 0 0 0-.642-.643h-1.05v5.455z"/>
        <mask id="b" fill="#fff">
            <use xlink:href="#a"/>
        </mask>
        <path fill="#78859A" d="M7.322 11.619h5.443v-.745H7.322zM7.322 13.109h5.443v-.745H7.322z" mask="url(#b)"/>
        <path fill="#78859A" d="M13.717 14.165a.238.238 0 0 1-.237.239h-1.94L9.84 15.6a.238.238 0 0 1-.373-.196v-1.002H6.609a.239.239 0 0 1-.238-.238V9.857c0-.131.107-.237.238-.237h6.87c.132 0 .238.106.238.237v4.309zm-3.673-8.77a.694.694 0 1 1 0 1.389.694.694 0 0 1 0-1.388zm0-2.392a5.695 5.695 0 0 0-5.695 5.694v8.87h11.39v-8.87a5.695 5.695 0 0 0-5.695-5.694z" mask="url(#b)"/>
        <path fill="#78859A" d="M8.58 2.617c.368-.392.886-.64 1.464-.64s1.096.248 1.463.64c.505.129.985.319 1.428.569a3.009 3.009 0 0 0-2.891-2.21 3.01 3.01 0 0 0-2.892 2.21c.444-.25.923-.44 1.428-.57M7.804 18.296H5.779l-.812 1.02h3.649zM14.222 18.296h-2.025l-.811 1.02H15.033z" mask="url(#b)"/>
    </g>
</svg>
