<?xml version="1.0" encoding="UTF-8"?>
<svg width="40px" height="40px" viewBox="0 0 40 40" version="1.1" xmlns="http://www.w3.org/2000/svg" xmlns:xlink="http://www.w3.org/1999/xlink">
    <!-- Generator: Sketch 62 (91390) - https://sketch.com -->
    <title>ic-plivo</title>
    <desc>Created with Sketch.</desc>
    <defs>
        <polygon id="path-1" points="0 0.108355265 30.0000006 0.108355265 30.0000006 23.4868426 0 23.4868426"></polygon>
    </defs>
    <g id="Page-1" stroke="none" stroke-width="1" fill="none" fill-rule="evenodd">
        <g id="ic-plivo">
            <rect id="Rectangle" fill="#FFFFFF" fill-rule="nonzero" opacity="0.01" x="0" y="0" width="40" height="40"></rect>
            <g id="Plivo-White-Icon" transform="translate(5.000000, 8.000000)">
                <g id="Group" transform="translate(0.000000, 0.089013)">
                    <g id="Clipped">
                        <g id="Shape-Clipped">
                            <mask id="mask-2" fill="white">
                                <use xlink:href="#path-1"></use>
                            </mask>
                            <g id="path-1"></g>
                            <path d="M14.9477766,0.108075148 C12.4009345,0.117157897 10.0514607,0.955381598 8.15356595,2.36636847 C6.25567118,3.77755271 4.80935536,5.76150012 4.0690264,8.06103963 C4.03882903,8.15478964 3.99303955,8.24123701 3.93402639,8.31781596 C3.8752106,8.39419754 3.80317113,8.4607107 3.72067113,8.51439491 C2.54830268,9.2770265 1.58336845,10.3305792 0.930078966,11.572816 C0.276789479,12.8152503 -0.064657896,14.2463687 0.010144737,15.7641319 C0.118500002,17.9582767 1.11580265,19.892882 2.63514479,21.2768294 C4.15448693,22.6609741 6.19606591,23.4942636 8.39317122,23.4869122 L15.0281056,23.4869122 L21.6628425,23.4869122 C23.8599478,23.4792636 25.8958031,22.6205136 27.4054742,21.214461 C28.9153427,19.808803 29.8992243,17.8562372 29.9925795,15.6611056 C30.0569217,14.1427503 29.7056059,12.7140003 29.0438295,11.4763029 C28.3820532,10.2384081 27.4098163,9.19156597 26.2325137,8.43702648 C26.1494216,8.38393438 26.0769874,8.31801332 26.0175795,8.24182911 C25.9581716,8.16584227 25.91179,8.07978964 25.8810005,7.98603963 C25.1246847,5.69163169 23.6649478,3.71775007 21.7571846,2.31978952 C19.8498162,0.921828966 17.4946188,0.0995921073 14.9477766,0.108075148 M14.957645,3.02483751 C16.837974,3.01847374 18.6233688,3.64136849 20.073632,4.7158422 C21.5236978,5.79031591 22.6390268,7.3161712 23.1790268,9.1157765 L23.2958689,9.5051844 L23.412711,9.89478967 C23.4431057,9.99603967 23.4920531,10.0895923 23.5561978,10.1713028 C23.6201452,10.2530134 23.6994873,10.3228818 23.7904742,10.376566 L24.1408031,10.5832107 L24.4913294,10.7896581 C25.3323163,11.285645 25.99804,11.9786055 26.4440926,12.791566 C26.8901453,13.6045266 27.1167242,14.5376845 27.0794216,15.5140661 C27.0249479,16.9313688 26.38804,18.1880135 25.4102768,19.0919609 C24.4323163,19.9957109 23.1135005,20.5461715 21.6950136,20.5509083 L15.0180398,20.573803 L8.34106596,20.596994 C6.92257909,20.6018294 5.60001327,20.0602504 4.6159343,19.1634083 C3.63185534,18.2663688 2.98626322,17.0138688 2.92231585,15.5971582 C2.87810532,14.620974 3.09817111,13.6864345 3.53869744,12.870316 C3.97942113,12.0541976 4.64021062,11.3566976 5.47803958,10.8549871 L5.82678959,10.6461713 L6.17573697,10.4371581 C6.26652644,10.3828818 6.34527644,10.3124213 6.40863171,10.230316 C6.47238171,10.1480134 6.5205396,10.0542634 6.55014487,9.95261862 L6.66442119,9.56222388 L6.77850014,9.1720265 C7.3062633,7.36886857 8.41093438,5.83531591 9.85389493,4.75077641 C11.2966581,3.66663165 13.0775134,3.03150006 14.957645,3.02483751" id="Shape" fill="#E6E6F3" fill-rule="nonzero" mask="url(#mask-2)"></path>
                        </g>
                    </g>
                </g>
                <path d="M12.6870989,10.1942765 C12.6870989,10.365987 12.61802,10.5215134 12.5059147,10.6342107 C12.3938095,10.7473028 12.2386779,10.817566 12.0669673,10.8185528 L11.44052,10.8209213 L10.8138752,10.8230923 C10.6423621,10.8230923 10.4868357,10.753816 10.373941,10.6417107 C10.2610463,10.5296055 10.1907831,10.3744739 10.1895989,10.2029607 L10.1874278,9.57631598 L10.1852568,8.94967123 C10.1852568,8.77815807 10.2543357,8.62263175 10.3666384,8.50973701 C10.4787436,8.39703964 10.6336778,8.32657911 10.8053884,8.3253949 L11.4320331,8.32342122 L12.0584805,8.32125017 C12.230191,8.32125017 12.3857174,8.39032912 12.4984147,8.50243438 C12.6115068,8.61453965 12.68177,8.76967123 12.6827568,8.94118439 L12.6849279,9.56782914 L12.6870989,10.1942765 Z M16.2320135,10.1942765 C16.2320135,10.365987 16.1629345,10.5215134 16.0508293,10.6342107 C15.938724,10.7473028 15.7835924,10.817566 15.6120793,10.8185528 L14.9854345,10.8209213 L14.3587898,10.8230923 C14.1872766,10.8230923 14.0317503,10.753816 13.9188555,10.6417107 C13.8059608,10.5296055 13.7356976,10.3744739 13.7347108,10.2029607 L13.7323424,9.57631598 L13.7303675,8.94967123 C13.7301713,8.77815807 13.7994476,8.62263175 13.9115529,8.50973701 C14.0236582,8.39703964 14.1787898,8.32657911 14.3503029,8.3253949 L14.9769477,8.32342122 L15.603395,8.32125017 C15.7751056,8.32125017 15.9306319,8.39032912 16.0435266,8.50243438 C16.1564214,8.61453965 16.2266845,8.76967123 16.2276714,8.94118439 L16.2298424,9.56782914 L16.2320135,10.1942765 Z M19.7770267,10.1946713 C19.7770267,10.3661844 19.7079478,10.5217107 19.5958425,10.6346055 C19.4837372,10.7475002 19.3286056,10.8177634 19.1568951,10.8189476 L18.5304477,10.8211186 L17.903803,10.8233008 C17.7320925,10.8238818 17.5763688,10.7546055 17.4632767,10.6425002 C17.3503819,10.5301976 17.2801188,10.3748686 17.2795267,10.2031581 L17.2773556,9.57651335 L17.2751734,8.9498686 C17.2745925,8.77815807 17.3436714,8.62243438 17.455974,8.50953964 C17.5682767,8.3966449 17.7234082,8.32638175 17.8953161,8.32578964 L18.5217635,8.32361859 L19.1484083,8.32144753 C19.3205135,8.31690806 19.4784083,8.38263175 19.5942635,8.49256596 C19.7101188,8.60250017 19.7839346,8.75664491 19.7884741,8.92875018 C19.7884741,8.93092123 19.7884741,8.93289492 19.7886714,8.93506597 L19.7886714,8.94138176 L19.7827504,9.56802651 L19.7770267,10.1946713 Z M12.6886384,13.7384213 C12.6886384,13.9099345 12.6195595,14.0654608 12.5074542,14.1783555 C12.3953489,14.2912503 12.2402174,14.3615134 12.0685068,14.3626977 L11.4420594,14.3648687 L10.8154147,14.367041 C10.6439015,14.3672371 10.4883752,14.2977634 10.3754805,14.1858555 C10.2625857,14.0735529 10.1923226,13.9186187 10.1911384,13.7469082 L10.1889673,13.1202634 L10.1867963,12.493816 C10.1867963,12.3221055 10.2558752,12.1665792 10.3681778,12.0538818 C10.4802831,11.9409871 10.6352173,11.8705266 10.8069278,11.8695397 L11.4335726,11.867566 L12.06002,11.8651976 C12.2317305,11.8651976 12.3872568,11.9342766 12.4999542,12.0465792 C12.6130463,12.1584871 12.6833095,12.3136187 12.6842963,12.4851318 L12.6864674,13.1117766 L12.6886384,13.7384213 Z M16.233553,13.7384213 C16.233553,13.9099345 16.164474,14.0654608 16.0523687,14.1783555 C15.9402635,14.2912503 15.7851319,14.3615134 15.6136187,14.3626977 L14.986974,14.3648687 L14.3603292,14.367041 C14.1888161,14.3672371 14.0332898,14.2977634 13.920395,14.1858555 C13.8075003,14.0735529 13.7372371,13.9186187 13.7362503,13.7469082 L13.7338819,13.1202634 L13.7319069,12.493816 C13.7317108,12.3221055 13.8009871,12.1665792 13.9130924,12.0538818 C14.0251976,11.9409871 14.1803292,11.8705266 14.3518424,11.8695397 L14.9784871,11.867566 L15.6049345,11.8651976 C15.7766451,11.8651976 15.9321714,11.9342766 16.0450661,12.0465792 C16.1579608,12.1584871 16.228224,12.3136187 16.2292109,12.4851318 L16.2313819,13.1117766 L16.233553,13.7384213 Z M19.7785662,13.7384213 C19.7785662,13.9099345 19.7094872,14.0654608 19.597382,14.1783555 C19.4852767,14.2912503 19.3301451,14.3615134 19.1584346,14.3626977 L18.5319872,14.3648687 L17.9053425,14.3670509 C17.7336319,14.3676319 17.5779082,14.2985529 17.4648161,14.1862503 C17.3519214,14.0739476 17.2816582,13.9188161 17.2810661,13.7469082 L17.2788951,13.1202634 L17.2767129,12.493816 C17.2761319,12.3219081 17.3452109,12.1661845 17.4575135,12.0532897 C17.5698161,11.940395 17.7249477,11.8701318 17.8968556,11.8695397 L18.523303,11.867566 L19.1499478,11.8651976 C19.3216583,11.8651976 19.4771846,11.9342766 19.589882,12.0465792 C19.7029741,12.1584871 19.7732372,12.3136187 19.7742241,12.4851318 L19.7763951,13.1117766 L19.7785662,13.7384213 Z M12.690189,17.281224 C12.69077,17.4529346 12.621691,17.6088556 12.5093884,17.7217504 C12.3972831,17.8348425 12.2419542,17.9049083 12.0700463,17.9055004 L11.4435989,17.9076714 L10.8169542,17.9098536 C10.6452436,17.9104346 10.4895199,17.8413556 10.3764278,17.7292504 C10.2635331,17.6169477 10.1932699,17.4616188 10.1926778,17.2899082 L10.1905068,16.6632635 L10.1883357,16.0366187 C10.1883357,15.8651056 10.2574147,15.7095793 10.3697173,15.5966845 C10.4818226,15.4837898 10.6367568,15.4135266 10.8084673,15.4123424 L11.4351121,15.4103687 L12.0615595,15.4081964 C12.23327,15.4080003 12.3887963,15.4770793 12.5014937,15.5893819 C12.6145858,15.7014872 12.6848489,15.8564214 12.6858358,16.0279345 L12.6880068,16.6545793 L12.690189,17.281224 Z M16.2351036,17.281224 C16.2356845,17.4529346 16.1666056,17.6088556 16.054303,17.7217504 C15.9421977,17.8348425 15.7868687,17.9049083 15.6151582,17.9055004 L14.9885135,17.9076714 L14.3618687,17.9098536 C14.1901582,17.9104346 14.0344345,17.8413556 13.9213424,17.7292504 C13.8084476,17.6169477 13.7383819,17.4616188 13.7377897,17.2899082 L13.7354213,16.6632635 L13.7334464,16.0366187 C13.7332503,15.8651056 13.8025266,15.7095793 13.9146319,15.5966845 C14.0267371,15.4837898 14.1818687,15.4135266 14.3533819,15.4123424 L14.9800266,15.4103687 L15.606474,15.4081964 C15.7781845,15.4080003 15.9337108,15.4770793 16.0466056,15.5893819 C16.1595003,15.7014872 16.2297635,15.8564214 16.2307503,16.0279345 L16.2329214,16.6545793 L16.2351036,17.281224 Z M19.7801168,17.281224 C19.7806978,17.4529346 19.7116188,17.6088556 19.5993162,17.7217504 C19.4872109,17.8348425 19.331882,17.9049083 19.1599741,17.9055004 L18.5335267,17.9076714 L17.9068819,17.9098536 C17.7351714,17.9104346 17.5794477,17.8413556 17.4663556,17.7292504 C17.3534609,17.6169477 17.2831977,17.4616188 17.2826056,17.2899082 L17.2804346,16.6632635 L17.2782523,16.0366187 C17.2776714,15.8649082 17.3467503,15.7089872 17.459053,15.5960924 C17.5713556,15.4831977 17.7264872,15.4129345 17.8983951,15.4123424 L18.5248425,15.4103687 L19.1514872,15.4081964 C19.3231978,15.4080003 19.4787241,15.4770793 19.5914214,15.5893819 C19.7045136,15.7014872 19.7747767,15.8564214 19.7757636,16.0279345 L19.7779346,16.6545793 L19.7801168,17.281224 Z" id="Shape" fill="#E6E6F3" fill-rule="nonzero"></path>
            </g>
        </g>
    </g>
</svg>