<svg xmlns="http://www.w3.org/2000/svg" width="20" height="20" viewBox="0 0 20 20">
    <g fill="#788599" fill-rule="evenodd">
        <path d="M9.827 11.763c-.841.587-1.553 1.051-2.636 1.028-.907-.019-1.797-.253-2.496-.843a.196.196 0 0 1-.066-.11 4.765 4.765 0 0 0-2.114 4.037l.047 1.334c.005.328.276.59.604.585h8.325a.594.594 0 0 0 .584-.604l-.02-1.47a4.767 4.767 0 0 0-2.228-3.957M10.625 7.9a3.453 3.453 0 1 1-6.905.113 3.453 3.453 0 0 1 6.905-.114M17.465 13.327a4.762 4.762 0 0 0-2.228-3.956c-.84.587-1.552 1.05-2.635 1.028a4.696 4.696 0 0 1-1.334-.21 4.342 4.342 0 0 1-.352.536 5.603 5.603 0 0 1 2.325 4.459l.004.218h3.657a.595.595 0 0 0 .584-.604l-.021-1.471zM11.811 7.46a4.25 4.25 0 0 1-.246 1.497 3.454 3.454 0 0 0 4.47-3.354 3.455 3.455 0 0 0-3.509-3.396 3.45 3.45 0 0 0-2.862 1.61 4.319 4.319 0 0 1 2.147 3.643"/>
    </g>
</svg>
