<svg xmlns="http://www.w3.org/2000/svg" width="20" height="20" viewBox="0 0 20 20">
    <path fill="#1FA028" fill-rule="evenodd" d="M17.802 8.519l-1.777-.198a5.75 5.75 0 0 0-.494-1.382l1.086-1.383V5.26L14.74 3.383h-.296L13.061 4.47a5.692 5.692 0 0 0-1.382-.494l-.198-1.778L11.284 2H8.716l-.198.198-.197 1.778a5.7 5.7 0 0 0-1.383.494L5.555 3.383H5.26L3.383 5.26v.296l1.185 1.383c-.297.395-.494.889-.593 1.382l-1.777.198L2 8.716v2.569l.198.197 1.777.198c.1.493.296.987.593 1.382l-1.185 1.383v.296l1.876 1.877h.296l1.383-1.185c.395.296.89.493 1.383.592l.197 1.778.198.197h2.568l.197-.197.198-1.778c.494-.1.987-.296 1.382-.592l1.383 1.185h.296l1.877-1.877v-.296l-1.086-1.383a5.75 5.75 0 0 0 .494-1.382l1.777-.198.198-.197v-2.57l-.198-.196zM10 12.865A2.867 2.867 0 0 1 7.135 10 2.867 2.867 0 0 1 10 7.136 2.866 2.866 0 0 1 12.864 10 2.866 2.866 0 0 1 10 12.865z"/>
</svg>
