<svg xmlns="http://www.w3.org/2000/svg" width="20" height="20" viewBox="0 0 20 20">
    <g fill="none" fill-rule="evenodd">
        <path fill="#FFF" fill-opacity=".01" d="M0 20h20V0H0z"/>
        <path fill="#1FA028" d="M10 3.489a6.01 6.01 0 0 0-6.003 6.003A6.009 6.009 0 0 0 10 15.494a6.009 6.009 0 0 0 6.003-6.002A6.01 6.01 0 0 0 10 3.489m0 13.003c-3.859 0-7-3.141-7-7 0-3.86 3.141-7 7-7s7 3.14 7 7c0 3.859-3.141 7-7 7"/>
        <path fill="#1FA028" d="M8.101 11.726L6 9.625l1.05-1.05 2.101 2.1L12.827 7l1.05 1.051-4.725 4.726-1.051-1.05z"/>
    </g>
</svg>
