<svg xmlns="http://www.w3.org/2000/svg" width="24" height="24" viewBox="0 0 24 24">
<g fill="none" fill-rule="evenodd">
    <rect width="24" height="24" fill="#FFF" fill-opacity=".01" rx="2"/>
    <g fill="#1FA028">
        <path d="M15.487 23.464c-.363 0-.727-.084-1.053-.242-1.905-.926-4.783-2.634-7.67-5.52-2.886-2.887-4.597-5.766-5.523-7.672-.45-.93-.259-2.046.476-2.779l2.016-2.003L7.86 9.4l-1.983 2.008.042.094c.033.076.858 1.901 2.949 3.991 2.093 2.094 3.897 2.898 3.973 2.932l.091.04 2.05-1.983 4.24 4.248-2.007 2.016a2.432 2.432 0 0 1-1.729.717M19.402 12.335l-1.606-.263c.015-.104.385-2.653-1.594-4.568-1.976-1.913-4.336-1.503-4.435-1.485l-.308-1.598c.131-.028 3.27-.606 5.875 1.913 2.604 2.52 2.091 5.86 2.068 6"/>
        <path d="M22.986 12.914l-1.606-.264c.007-.04.651-4.389-2.633-7.566-3.307-3.2-7.316-2.458-7.356-2.45l-.312-1.599c.196-.039 4.89-.906 8.8 2.878 3.91 3.785 3.142 8.79 3.107 9.001M16.006 11.948l-1.607-.264c.006-.037.145-1.081-.653-1.855a2.202 2.202 0 0 0-1.784-.612l-.314-1.597c.073-.016 1.807-.337 3.23 1.039 1.422 1.377 1.14 3.211 1.128 3.289"/>
    </g>
</g>
</svg>

