<svg xmlns="http://www.w3.org/2000/svg" width="14" height="12" viewBox="0 0 14 12">
    <g fill="none" fill-rule="evenodd">
        <path d="M0-1h14v14H0V-1zm0 0h14v14H0V-1zm0 0h14v14H0V-1zm0 0h14v14H0V-1z"/>
        <path fill="#2BB031" fill-rule="nonzero" d="M7 3.083A2.918 2.918 0 0 1 9.917 6c0 .38-.076.735-.21 1.068L11.41 8.77a6.893 6.893 0 0 0 2-2.771 6.899 6.899 0 0 0-6.416-4.375c-.816 0-1.598.146-2.321.408l1.26 1.26A2.83 2.83 0 0 1 7 3.082v.001zM1.167 1.491l1.33 1.33.268.268A6.886 6.886 0 0 0 .583 6a6.899 6.899 0 0 0 8.972 3.885l.245.245 1.71 1.703.74-.74L1.908.75l-.741.74v.001zm3.226 3.226l.904.904c-.03.122-.047.25-.047.379 0 .968.782 1.75 1.75 1.75.128 0 .257-.018.38-.047l.903.904A2.88 2.88 0 0 1 7 8.917 2.918 2.918 0 0 1 4.083 6c0-.46.117-.893.31-1.283zm2.514-.455l1.837 1.837.012-.093c0-.969-.782-1.75-1.75-1.75l-.1.006h.001z"/>
    </g>
</svg>
