<svg xmlns="http://www.w3.org/2000/svg" xmlns:xlink="http://www.w3.org/1999/xlink" width="20" height="20" viewBox="0 0 20 20">
    <defs>
        <path id="a" d="M0 0h13.873v9.248H0z"/>
    </defs>
    <g fill="none" fill-rule="evenodd" transform="translate(3 5)">
        <mask id="b" fill="#fff">
            <use xlink:href="#a"/>
        </mask>
        <path fill="#2BB031" d="M6.936 7.272A2.65 2.65 0 0 1 4.29 4.624a2.65 2.65 0 0 1 2.647-2.647 2.65 2.65 0 0 1 2.648 2.647 2.65 2.65 0 0 1-2.648 2.648m0-7.272C3.865 0 .834 2.203 0 4.624c.834 2.42 3.865 4.624 6.936 4.624 3.072 0 6.103-2.203 6.937-4.624C13.039 2.204 10.008 0 6.936 0m0 2.998c-.896 0-1.626.73-1.626 1.626 0 .897.73 1.627 1.626 1.627.897 0 1.627-.73 1.627-1.627s-.73-1.626-1.627-1.626" mask="url(#b)"/>
    </g>
</svg>
