<svg xmlns="http://www.w3.org/2000/svg" width="20" height="20" viewBox="0 0 20 20">
    <g fill="none" fill-rule="evenodd">
        <path fill="#FFF" fill-opacity=".01" d="M0 20h20V0H0z"/>
        <path fill="#C20009" d="M10 15.494a6.009 6.009 0 0 0 6.003-6.002A6.01 6.01 0 0 0 10 3.49a6.01 6.01 0 0 0-6.003 6.003A6.009 6.009 0 0 0 10 15.494m0-13.002c3.859 0 7 3.14 7 7s-3.141 7-7 7-7-3.14-7-7 3.141-7 7-7"/>
        <path fill="#C20009" d="M10 8.341c.566 0 1.025.46 1.025 1.025v3.364a1.025 1.025 0 0 1-2.05 0V9.366c0-.566.459-1.025 1.025-1.025M10 5.228a1.025 1.025 0 1 1 0 2.05 1.025 1.025 0 0 1 0-2.05"/>
    </g>
</svg>
