<svg xmlns="http://www.w3.org/2000/svg" width="114" height="74" viewBox="0 0 114 74">
    <defs>
        <linearGradient id="a" x1="0%" y1="50%" y2="50%">
            <stop offset="0%" stop-color="#EAEDF4"/>
            <stop offset="54%" stop-color="#EAEDF4" stop-opacity=".495"/>
            <stop offset="100%" stop-color="#EAEDF4" stop-opacity=".462"/>
        </linearGradient>
    </defs>
    <g fill="none" fill-rule="evenodd">
        <path fill="#E7ECF2" d="M0 8h82v56H0V8zm8 32v8h66v-8H8zm0-16v8h66v-8H8z"/>
        <path fill="url(#a)" fill-rule="nonzero" d="M88.264 10.184a27.55 27.55 0 0 0-39.43-.297C38.405 20.4 38.228 37.516 48.428 48.25c9.25 9.738 24.176 11.385 35.328 3.899l19.916 20.715c.513.533 1.362.55 1.896.037l4.963-4.772c.533-.513.55-1.362.037-1.896L90.659 45.52c7.88-10.8 6.87-25.698-2.395-35.336zM82.06 43.49c-7.845 7.543-20.32 7.297-27.862-.548-7.542-7.845-7.297-20.32.548-27.862 7.845-7.543 20.32-7.298 27.862.547a19.705 19.705 0 0 1-.548 27.863z"/>
        <path fill="url(#a)" fill-rule="nonzero" d="M53.808 23.801c-2.216 0-2.22 3.445 0 3.445s2.22-3.445 0-3.445zM69.256 12.768c-5.964-.134-11.392 2.858-14.278 7.375-.942 1.474 1.732 2.777 2.669 1.31 2.39-3.74 6.93-6.115 11.84-5.991 5.147.129 9.83 3.073 12.31 7.159.94 1.55 3.406.141 2.474-1.4-3.015-4.948-8.854-8.306-15.015-8.453z"/>
        <path fill="#B4BDCA" fill-rule="nonzero" d="M90.425 9.138a27.55 27.55 0 0 0-39.43-.297C40.568 19.353 40.39 36.47 50.59 47.204c9.252 9.737 24.177 11.383 35.328 3.897l19.914 20.716c.514.534 1.363.55 1.897.037l4.962-4.771c.534-.514.55-1.363.037-1.897L92.813 44.472c7.88-10.798 6.874-25.695-2.388-35.334zm-6.203 33.29c-7.846 7.543-20.32 7.298-27.862-.548-7.543-7.845-7.297-20.319.548-27.862 7.845-7.542 20.319-7.297 27.862.548a19.705 19.705 0 0 1-.548 27.863z"/>
        <path fill="#B4BDCA" fill-rule="nonzero" d="M55.97 22.753c-2.217 0-2.22 3.445 0 3.445s2.22-3.445 0-3.445zM71.418 11.722c-5.965-.134-11.392 2.858-14.278 7.375-.942 1.474 1.732 2.776 2.668 1.31 2.39-3.74 6.93-6.115 11.841-5.992 5.147.13 9.83 3.074 12.31 7.16.94 1.55 3.405.141 2.474-1.4-3.02-4.963-8.853-8.32-15.015-8.453z"/>
    </g>
</svg>
