<svg xmlns="http://www.w3.org/2000/svg" width="28" height="18" viewBox="0 0 28 18">
    <g fill="none" fill-rule="evenodd">
        <path fill="#E7ECF2" d="M25.663 18H2.337a2.34 2.34 0 0 1-1.645-.653c-.438-.422-.687-.999-.692-1.602V2.255c.005-.603.254-1.18.692-1.602A2.34 2.34 0 0 1 2.337 0h23.326a2.34 2.34 0 0 1 1.645.653c.438.422.687.999.692 1.602v13.5c-.016 1.252-1.06 2.255-2.337 2.245zM9.655 5.523c0-.436-.338-.786-.753-.786H3.65c-.416 0-.753.35-.753.786v3.164c0 .436.337.787.753.787h5.252c.415 0 .753-.35.753-.787V5.523z"/>
        <path fill="#8E9AAC" d="M24.043 15h-2.87c-.62 0-.956-.3-.956-1s.335-1 .957-1h2.87c.621 0 .956.3.956 1s-.335 1-.957 1zm-5.739 0h-2.87c-.621 0-.956-.3-.956-1s.335-1 .957-1h2.87c.621 0 .956.3.956 1s-.335 1-.957 1zm-5.739 0h-2.87c-.621 0-.956-.3-.956-1s.335-1 .957-1h2.87c.621 0 .956.3.956 1s-.335 1-.957 1zm-5.739 0h-2.87C3.336 15 3 14.7 3 14s.335-1 .957-1h2.87c.62 0 .956.3.956 1s-.335 1-.957 1z" opacity=".3"/>
    </g>
</svg>
