<svg width="20" height="20" viewBox="0 0 20 20" fill="none" xmlns="http://www.w3.org/2000/svg">
<path fill-rule="evenodd" clip-rule="evenodd" d="M10 3.48919C6.69 3.48919 3.997 6.18219 3.997 9.49219C3.997 12.8022 6.69 15.4942 10 15.4942C13.31 15.4942 16.003 12.8022 16.003 9.49219C16.003 6.18219 13.31 3.48919 10 3.48919ZM10 16.4922C6.141 16.4922 3 13.3512 3 9.49219C3 5.63219 6.141 2.49219 10 2.49219C13.859 2.49219 17 5.63219 17 9.49219C17 13.3512 13.859 16.4922 10 16.4922Z" fill="#C20009"/>
<path fill-rule="evenodd" clip-rule="evenodd" d="M10.0001 10.6425C9.4341 10.6425 8.9751 10.1835 8.9751 9.61754V6.25354C8.9751 5.68654 9.4341 5.22754 10.0001 5.22754C10.5661 5.22754 11.0251 5.68654 11.0251 6.25354V9.61754C11.0251 10.1835 10.5661 10.6425 10.0001 10.6425Z" fill="#C20009"/>
<path fill-rule="evenodd" clip-rule="evenodd" d="M10.0001 13.7561C9.4341 13.7561 8.9751 13.2971 8.9751 12.7311C8.9751 12.1641 9.4341 11.7051 10.0001 11.7051C10.5661 11.7051 11.0251 12.1641 11.0251 12.7311C11.0251 13.2971 10.5661 13.7561 10.0001 13.7561Z" fill="#C20009"/>
</svg>
