<svg xmlns="http://www.w3.org/2000/svg" width="24" height="24" viewBox="0 0 24 24">
    <g fill="#1FA028" fill-rule="evenodd">
        <path d="M12.005 21.394c-5.191.01-9.396-4.187-9.403-9.385-.006-5.181 4.217-9.407 9.396-9.403 5.158.004 9.389 4.225 9.4 9.377.012 5.177-4.204 9.401-9.393 9.411M11.998.711C5.775.706.698 5.785.706 12.011c.008 6.247 5.06 11.29 11.3 11.278 6.236-.013 11.303-5.087 11.288-11.309C23.28 5.788 18.196.716 11.998.711"/>
        <path d="M16.113 18.186H7.951a.583.583 0 0 1-.592-.573l-.046-1.308a4.673 4.673 0 0 1 2.072-3.957.197.197 0 0 0 .066.107c.685.58 1.558.809 2.447.826 1.062.024 1.76-.431 2.584-1.008a4.671 4.671 0 0 1 2.184 3.878l.02 1.444a.582.582 0 0 1-.573.591M11.824 5.814a3.385 3.385 0 1 1 .11 6.768 3.385 3.385 0 0 1-.11-6.769m.174-1.893c-4.454-.004-8.087 3.631-8.082 8.088a8.071 8.071 0 0 0 8.09 8.073c4.461-.01 8.087-3.642 8.078-8.095-.01-4.433-3.649-8.064-8.086-8.066"/>
    </g>
</svg>
