<svg xmlns="http://www.w3.org/2000/svg" width="24" height="24" viewBox="0 0 24 24">
    <g fill="none" fill-rule="evenodd">
        <path fill="#FFF" fill-opacity=".01" d="M0 0h24v24H0z"/>
        <g fill="#788599" fill-rule="nonzero">
            <path d="M14.008 5.558c.55-.689.924-1.613.825-2.558-.806.04-1.789.532-2.358 1.22-.511.59-.964 1.554-.846 2.46.905.078 1.808-.453 2.379-1.122M14.823 6.856c-1.314-.078-2.43.745-3.058.745-.628 0-1.588-.706-2.627-.687-1.353.02-2.608.785-3.294 2-1.411 2.434-.372 6.043 1 8.024.667.98 1.47 2.06 2.529 2.021 1-.04 1.392-.648 2.608-.648 1.214 0 1.568.648 2.626.628 1.098-.02 1.785-.98 2.451-1.962.765-1.117 1.078-2.196 1.098-2.255-.02-.02-2.117-.825-2.137-3.237-.02-2.02 1.647-2.981 1.725-3.04-.94-1.393-2.411-1.55-2.921-1.59"/>
        </g>
    </g>
</svg>
