<svg xmlns="http://www.w3.org/2000/svg" width="24" height="24" viewBox="0 0 24 24">
    <path fill="#2BB031" fill-rule="evenodd" d="M18.857 5.95l-6.452 6.453a.571.571 0 0 1-.808-.808l6.452-6.452h-4.335a.571.571 0 1 1 0-1.143h5.715c.315 0 .571.256.571.571v5.715a.571.571 0 0 1-1.143 0V5.95zm-10.286.336H5.713A1.71 1.71 0 0 0 4 7.996V18.29c0 .943.776 1.71 1.717 1.71h10.28a1.714 1.714 0 0 0 1.716-1.716V15.43a.571.571 0 0 0-1.143 0v2.855a.571.571 0 0 1-.573.573H5.717a.576.576 0 0 1-.574-.567V7.995c0-.313.255-.566.57-.566h2.858a.571.571 0 1 0 0-1.143z"/>
</svg>
