<svg xmlns="http://www.w3.org/2000/svg" width="20" height="20" viewBox="0 0 20 20">
    <g fill="#788599" fill-rule="evenodd">
        <path d="M17.996 13.132l-4.383-.003-.033 2.08-.068.028c-.057.02-1.404.538-3.564.537-2.159 0-3.526-.515-3.584-.537l-.069-.027-.013-2.061-4.275-.013L2 15.21c0 .758.477 1.433 1.19 1.68C4.652 17.397 7.02 18 10 18c2.98 0 5.35-.603 6.81-1.11A1.773 1.773 0 0 0 18 15.209l-.005-2.076z"/>
        <path d="M12.102 10h-4.17a.299.299 0 0 1-.303-.293l-.023-.668a2.385 2.385 0 0 1 1.059-2.022.095.095 0 0 0 .033.055c.35.296.797.413 1.25.422.543.012.899-.221 1.32-.515a2.387 2.387 0 0 1 1.116 1.981l.01.737a.298.298 0 0 1-.292.303M9.91 3.679a1.73 1.73 0 1 1 .056 3.458 1.73 1.73 0 0 1-.056-3.458M17.169 2H2.83A.832.832 0 0 0 2 2.831v8.017c0 .459.373.831.83.831h5.113l1.673 1.674a.544.544 0 0 0 .769 0l1.673-1.674h5.11a.83.83 0 0 0 .832-.831V2.831A.83.83 0 0 0 17.169 2"/>
    </g>
</svg>
