<svg xmlns="http://www.w3.org/2000/svg" width="16" height="16" viewBox="0 0 16 16">
    <g fill="none" fill-rule="evenodd">
        <path fill="#FFF" d="M0 0h16v16H0z"/>
        <path fill="#788599" d="M8 11.056c.363 0 .677.133.944.4.267.267.4.581.4.944s-.133.677-.4.944c-.267.267-.581.4-.944.4s-.677-.133-.944-.4a1.291 1.291 0 0 1-.4-.944c0-.363.133-.677.4-.944.267-.267.581-.4.944-.4zm0-4c.363 0 .677.133.944.4.267.267.4.581.4.944s-.133.677-.4.944c-.267.267-.581.4-.944.4s-.677-.133-.944-.4a1.291 1.291 0 0 1-.4-.944c0-.363.133-.677.4-.944.267-.267.581-.4.944-.4zm0-1.312c-.363 0-.677-.133-.944-.4a1.291 1.291 0 0 1-.4-.944c0-.363.133-.677.4-.944.267-.267.581-.4.944-.4s.677.133.944.4c.267.267.4.581.4.944s-.133.677-.4.944c-.267.267-.581.4-.944.4z"/>
    </g>
</svg>
