<?xml version="1.0" encoding="UTF-8"?>
<svg width="24px" height="24px" viewBox="0 0 24 24" version="1.1" xmlns="http://www.w3.org/2000/svg" xmlns:xlink="http://www.w3.org/1999/xlink">
    <title>ic/lookup-inactive</title>
    <g id="ic/lookup-inactive" stroke="none" stroke-width="1" fill="none" fill-rule="evenodd">
        <g id="search-24px">
            <polygon id="Path" points="0 0 24 0 24 24 0 24"></polygon>
            <path d="M16.7232704,14.836478 L15.7295597,14.836478 L15.3773585,14.4968553 C16.6100629,13.0628931 17.3522013,11.2012579 17.3522013,9.17610063 C17.3522013,4.66037736 13.6918239,1 9.17610063,1 C4.66037736,1 1,4.66037736 1,9.17610063 C1,13.6918239 4.66037736,17.3522013 9.17610063,17.3522013 C11.2012579,17.3522013 13.0628931,16.6100629 14.4968553,15.3773585 L14.836478,15.7295597 L14.836478,16.7232704 L21.1257862,23 L23,21.1257862 L16.7232704,14.836478 Z M9.17610063,14.836478 C6.04402516,14.836478 3.51572327,12.3081761 3.51572327,9.17610063 C3.51572327,6.04402516 6.04402516,3.51572327 9.17610063,3.51572327 C12.3081761,3.51572327 14.836478,6.04402516 14.836478,9.17610063 C14.836478,12.3081761 12.3081761,14.836478 9.17610063,14.836478 Z" id="Shape" fill="#E6E6F3" fill-rule="nonzero"></path>
        </g>
        <g id="Group-5" transform="translate(5.000000, 5.000000)" fill="#E6E6F3">
            <polygon id="Fill-1" points="0 3.40481423 8.49073308 3.40481423 8.49073308 2.17508974 0 2.17508974"></polygon>
            <polygon id="Fill-2" points="0 6.31638835 8.49073308 6.31638835 8.49073308 5.08619823 0 5.08619823"></polygon>
            <polygon id="Fill-3" points="5.08605854 8.49087277 6.31624866 8.49087277 6.31624866 0.000139688507 5.08605854 0.000139688507"></polygon>
            <polygon id="Fill-4" points="2.17448443 8.49087277 3.40420892 8.49087277 3.40420892 0.000139688507 2.17448443 0.000139688507"></polygon>
        </g>
    </g>
</svg>