<svg xmlns="http://www.w3.org/2000/svg" width="20" height="20" viewBox="0 0 20 20">
    <g fill="none" fill-rule="evenodd">
        <path fill="#788599" d="M18 10a8 8 0 1 1-16 0 8 8 0 0 1 16 0"/>
        <path fill="#FFF" d="M8.057 11.547c.468.432 1.055.995 1.835.995.923 0 1.283-.348 1.283-.887 0-.683-.935-.887-1.87-1.235-.936-.348-1.872-.864-1.872-2.16 0-1.475.984-2.242 2.291-2.361V4.747h1.08v1.175c.767.12 1.427.432 2.11.936l-1.043 1.295c-.504-.396-1.043-.732-1.727-.732-.42 0-.852.252-.852.732 0 .516.936.684 1.883 1.055.972.372 1.967.96 1.967 2.339 0 1.487-1.15 2.279-2.422 2.495v1.21H9.64V14.09c-1.115-.084-1.955-.564-2.782-1.38l1.2-1.163z"/>
    </g>
</svg>
