<svg xmlns="http://www.w3.org/2000/svg" xmlns:xlink="http://www.w3.org/1999/xlink" width="24" height="24" viewBox="0 0 24 24">
    <defs>
        <path id="a" d="M0 24h24V0H0z"/>
    </defs>
    <g fill="none" fill-rule="evenodd">
        <path fill="#1FA028" d="M22.194 22.304H9.498A1.104 1.104 0 0 1 8.394 21.2v-5.378a1.1 1.1 0 0 1 1.104-1.103h12.697a1.102 1.102 0 0 1 1.103 1.104V21.2a1.105 1.105 0 0 1-1.104 1.104M14.021 8.556H1.5a.829.829 0 0 1-.832-.831V2.477a.828.828 0 0 1 .831-.831h12.523a.833.833 0 0 1 .831.83V7.726a.83.83 0 0 1-.83.83"/>
        <path fill="#1FA028" d="M16.476 16.062h-1.3v-3.751a.27.27 0 0 0-.27-.27H8.68a1.571 1.571 0 0 1-1.57-1.569v-3.32h1.3v3.32c0 .149.122.27.27.27h6.228c.865 0 1.569.704 1.569 1.569v3.751z"/>
        <mask id="b" fill="#fff">
            <use xlink:href="#a"/>
        </mask>
        <path fill="#1FA028" d="M6.205 9.672h3v-3h-3zM14.346 16.602h3v-3h-3z" mask="url(#b)"/>
    </g>
</svg>
