<svg xmlns="http://www.w3.org/2000/svg" width="20" height="20" viewBox="0 0 20 20">
    <g fill="none" fill-rule="evenodd">
        <path fill="#FFF" fill-opacity=".01" d="M0 20h20V0H0z"/>
        <path fill="#788599" d="M9.532 1.15a4.577 4.577 0 0 0-4.576 4.577c0 .548.112 1.066.288 1.552h2.493l-.003-.002.687-.666c.267.247.603.57 1.049.57.529 0 .734-.2.734-.508 0-.391-.535-.507-1.07-.707-.536-.198-1.07-.494-1.07-1.234 0-.844.563-1.284 1.31-1.352v-.66h.618v.674c.438.069.816.247 1.207.535l-.597.74c-.288-.226-.596-.418-.988-.418-.24 0-.486.145-.486.419 0 .295.535.39 1.076.604.557.212 1.126.548 1.126 1.337 0 .26-.068.48-.175.668h2.665a4.539 4.539 0 0 0 .288-1.552A4.577 4.577 0 0 0 9.532 1.15M12.822 16.39c-.787 0-1.427-.64-1.427-1.427v-2.826c0-.787.64-1.428 1.427-1.428h3.865V8.803a.553.553 0 0 0-.553-.553H2.794a.553.553 0 0 0-.553.553v9.493c0 .306.248.554.554.554h13.339a.554.554 0 0 0 .553-.554V16.39h-3.865z"/>
        <path fill="#788599" d="M17.294 15.417h-4.46a.465.465 0 0 1-.465-.466v-2.802c0-.257.208-.466.466-.466h4.459c.257 0 .466.209.466.466v2.802a.466.466 0 0 1-.466.466"/>
    </g>
</svg>
