<svg xmlns="http://www.w3.org/2000/svg" xmlns:xlink="http://www.w3.org/1999/xlink" width="20" height="20" viewBox="0 0 20 20">
    <defs>
        <path id="a" d="M0 20h20V0H0z"/>
    </defs>
    <g fill="none" fill-rule="evenodd">
        <path fill="#78859A" d="M9.748 4a1 1 0 1 1 0-2 1 1 0 0 1 0 2m.031-3C8.691 1 7.81 1.868 7.81 2.939V6h3.938V2.939C11.748 1.868 10.866 1 9.78 1"/>
        <mask id="b" fill="#fff">
            <use xlink:href="#a"/>
        </mask>
        <path fill="#78859A" d="M1.748 18h17V7.03h-17z" mask="url(#b)"/>
        <path fill="#78859A" d="M1.963 14l1.674-4.2h.618l1.59 4.2h-.852l-.294-.828h-1.62l-.3.828h-.816zm1.932-3.066l-.588 1.614h1.17l-.576-1.614h-.006zM6.493 14V9.8h1.062c.402 0 .822.066 1.128.264.318.21.474.528.474.906 0 .36-.18.666-.576.828.474.15.75.51.75.978 0 .486-.282.87-.726 1.056-.318.132-.726.168-1.104.168H6.493zm.744-1.842v1.206h.252c.294 0 .57-.012.774-.108.174-.084.282-.228.282-.474 0-.378-.258-.624-.744-.624h-.564zm0-1.722v1.116h.306c.552 0 .87-.174.87-.546 0-.228-.078-.354-.204-.438-.18-.12-.45-.132-.756-.132h-.216zm4.62 2.16h-1.644v-.618h1.644v.618zM13.999 14h-.732v-3.132c-.18.09-.42.18-.582.252v-.666c.252-.126.558-.288.834-.444h.48V14zm3.462-.624V14h-2.616v-.582a15.776 15.776 0 0 0 1.374-1.626c.15-.216.324-.504.324-.756 0-.294-.246-.468-.534-.468-.3 0-.522.228-.528.582l-.726-.126c.054-.66.648-1.086 1.278-1.086.642 0 1.254.408 1.254 1.086 0 .384-.186.78-.42 1.11-.306.432-.684.858-1.044 1.242h1.638z"/>
        <path fill="#FFF" d="M1.963 14l1.674-4.2h.618l1.59 4.2h-.852l-.294-.828h-1.62l-.3.828h-.816zm1.932-3.066l-.588 1.614h1.17l-.576-1.614h-.006zM6.493 14V9.8h1.062c.402 0 .822.066 1.128.264.318.21.474.528.474.906 0 .36-.18.666-.576.828.474.15.75.51.75.978 0 .486-.282.87-.726 1.056-.318.132-.726.168-1.104.168H6.493zm.744-1.842v1.206h.252c.294 0 .57-.012.774-.108.174-.084.282-.228.282-.474 0-.378-.258-.624-.744-.624h-.564zm0-1.722v1.116h.306c.552 0 .87-.174.87-.546 0-.228-.078-.354-.204-.438-.18-.12-.45-.132-.756-.132h-.216zm4.62 2.16h-1.644v-.618h1.644v.618zM13.999 14h-.732v-3.132c-.18.09-.42.18-.582.252v-.666c.252-.126.558-.288.834-.444h.48V14zm3.462-.624V14h-2.616v-.582a15.776 15.776 0 0 0 1.374-1.626c.15-.216.324-.504.324-.756 0-.294-.246-.468-.534-.468-.3 0-.522.228-.528.582l-.726-.126c.054-.66.648-1.086 1.278-1.086.642 0 1.254.408 1.254 1.086 0 .384-.186.78-.42 1.11-.306.432-.684.858-1.044 1.242h1.638z"/>
    </g>
</svg>
