<svg xmlns="http://www.w3.org/2000/svg" width="20" height="20" viewBox="0 0 20 20">
    <g fill="none" fill-rule="evenodd">
        <path fill="#EAEDF4" d="M15.25 3H4.75A1.75 1.75 0 0 0 3 4.75v10.5c0 .966.784 1.75 1.75 1.75h10.5A1.75 1.75 0 0 0 17 15.25V4.75A1.75 1.75 0 0 0 15.25 3m0 1.4a.35.35 0 0 1 .35.35v10.5a.35.35 0 0 1-.35.35H4.75a.35.35 0 0 1-.35-.35V4.75a.35.35 0 0 1 .35-.35h10.5"/>
        <path fill="#FFF" d="M15.25 4.4a.35.35 0 0 1 .35.35v10.5a.35.35 0 0 1-.35.35H4.75a.35.35 0 0 1-.35-.35V4.75a.35.35 0 0 1 .35-.35h10.5"/>
    </g>
</svg>
