<?xml version="1.0" encoding="UTF-8"?>
<svg width="24px" height="24px" viewBox="0 0 24 24" version="1.1" xmlns="http://www.w3.org/2000/svg" xmlns:xlink="http://www.w3.org/1999/xlink">
    <!-- Generator: Sketch 51.3 (57544) - http://www.bohemiancoding.com/sketch -->
    <title>ic/default/zentrunk</title>
    <desc>Created with Sketch.</desc>
    <defs>
        <polygon id="path-1" points="0 0.4809 3.9316 0.4809 3.9316 4.4809 0 4.4809"></polygon>
    </defs>
    <g id="ic/default/zentrunk" stroke="none" stroke-width="1" fill="none" fill-rule="evenodd">
        <g id="Group-13">
            <g id="Group-12">
                <polygon id="Fill-1" fill-opacity="0.01" fill="#FFFFFF" points="0 24 24 24 24 0 0 0"></polygon>
                <path d="M17.9263,6.4809 L6.9373,6.4809 C5.8293,6.4809 4.9313,7.3349 4.9313,8.3889 L4.9313,16.5729 C4.9313,17.6269 5.8293,18.4809 6.9373,18.4809 L17.9263,18.4809 C19.0333,18.4809 19.9313,17.6269 19.9313,16.5729 L19.9313,8.3889 C19.9313,7.3349 19.0333,6.4809 17.9263,6.4809" id="Fill-3" fill="#E6E6F3"></path>
                <path d="M21.2021,22.4809 L3.6691,22.4809 C2.1631,22.4809 0.9391,21.2569 0.9391,19.7529 L0.9391,9.6509 L2.9151,9.6759 L2.9151,19.7779 C2.9151,20.1799 3.2421,20.5069 3.6441,20.5069 L21.2851,20.4819 C21.6881,20.4819 22.0141,20.1549 22.0141,19.7529 L22.0141,5.1999 C22.0141,4.7979 21.6881,4.4719 21.2851,4.4719 L7.9581,4.4719 L7.9411,2.5109 L21.1841,2.5109 C22.6891,2.5109 23.9311,3.6959 23.9311,5.1999 L23.9311,19.7529 C23.9311,21.2569 22.7071,22.4809 21.2021,22.4809" id="Fill-5" fill="#E6E6F3"></path>
                <g id="Group-9" transform="translate(0.000000, 7.000000)">
                    <mask id="mask-2" fill="white">
                        <use xlink:href="#path-1"></use>
                    </mask>
                    <g id="Clip-8"></g>
                    <path d="M3.9316,2.4809 C3.9316,3.5849 3.0516,4.4809 1.9656,4.4809 C0.8806,4.4809 -0.0004,3.5849 -0.0004,2.4809 C-0.0004,1.3769 0.8806,0.4809 1.9656,0.4809 C3.0516,0.4809 3.9316,1.3769 3.9316,2.4809" id="Fill-7" fill="#E6E6F3" mask="url(#mask-2)"></path>
                </g>
                <path d="M8.9316,3.4809 C8.9316,4.5849 8.0356,5.4809 6.9316,5.4809 C5.8276,5.4809 4.9316,4.5849 4.9316,3.4809 C4.9316,2.3769 5.8276,1.4809 6.9316,1.4809 C8.0356,1.4809 8.9316,2.3769 8.9316,3.4809" id="Fill-10" fill="#E6E6F3"></path>
            </g>
            <path d="M8.74210625,16.1445312 C8.35408348,16.1445312 7.85799469,16.0598967 7.253825,15.890625 L7.253825,15.078125 C7.90486992,15.3802098 8.44002082,15.53125 8.85929375,15.53125 C9.18221203,15.53125 9.44197506,15.4466154 9.63859062,15.2773438 C9.83520619,15.1080721 9.9335125,14.885418 9.9335125,14.609375 C9.9335125,14.3828114 9.86906002,14.190105 9.74015312,14.03125 C9.61124623,13.872395 9.3736184,13.6953135 9.0272625,13.5 L8.628825,13.2695312 C8.13663504,12.9882798 7.7896333,12.7233085 7.58780938,12.4746094 C7.38598545,12.2259102 7.285075,11.9361996 7.285075,11.6054688 C7.285075,11.160154 7.44653172,10.7936212 7.76945,10.5058594 C8.09236828,10.2180975 8.5038225,10.0742188 9.003825,10.0742188 C9.44913973,10.0742188 9.91918711,10.1484368 10.4139812,10.296875 L10.4139812,11.046875 C9.8046032,10.8072905 9.35018066,10.6875 9.0507,10.6875 C8.76684441,10.6875 8.53247176,10.7630201 8.347575,10.9140625 C8.16267824,11.0651049 8.07023125,11.2552072 8.07023125,11.484375 C8.07023125,11.6770843 8.13793891,11.8476555 8.27335625,11.9960938 C8.40877359,12.144532 8.65616695,12.3216136 9.01554375,12.5273438 L9.42960625,12.7617188 C9.92960875,13.0455743 10.2785636,13.3138008 10.4764812,13.5664062 C10.6743989,13.8190117 10.7733562,14.1223941 10.7733562,14.4765625 C10.7733562,14.9791692 10.5878112,15.382811 10.2167156,15.6875 C9.84562002,15.992189 9.35408848,16.1445312 8.74210625,16.1445312 Z M12.0139813,16 L12.0139813,10.21875 L12.8342938,10.21875 L12.8342938,16 L12.0139813,16 Z M14.422575,16 L14.422575,10.21875 L15.9967938,10.21875 C16.6947139,10.21875 17.196011,10.3365874 17.5007,10.5722656 C17.805389,10.8079439 17.9577313,11.1953098 17.9577313,11.734375 C17.9577313,12.3489614 17.7494,12.8307274 17.3327313,13.1796875 C16.9160625,13.5286476 16.3379433,13.703125 15.5983563,13.703125 L15.235075,13.703125 L15.235075,16 L14.422575,16 Z M15.235075,13.0820312 L15.5671063,13.0820312 C16.0540879,13.0820312 16.4303862,12.9700532 16.6960125,12.7460938 C16.9616388,12.5221343 17.09445,12.2057312 17.09445,11.796875 C17.09445,11.4505191 16.9902844,11.2031257 16.78195,11.0546875 C16.5736156,10.9062493 16.2259629,10.8320312 15.7389813,10.8320312 L15.235075,10.8320312 L15.235075,13.0820312 Z" id="SIP" fill="#05006D"></path>
            <path d="M8.87890625,16.1445312 C8.49088348,16.1445312 7.99479469,16.0598967 7.390625,15.890625 L7.390625,15.078125 C8.04166992,15.3802098 8.57682082,15.53125 8.99609375,15.53125 C9.31901203,15.53125 9.57877506,15.4466154 9.77539062,15.2773438 C9.97200619,15.1080721 10.0703125,14.885418 10.0703125,14.609375 C10.0703125,14.3828114 10.00586,14.190105 9.87695312,14.03125 C9.74804623,13.872395 9.5104184,13.6953135 9.1640625,13.5 L8.765625,13.2695312 C8.27343504,12.9882798 7.9264333,12.7233085 7.72460938,12.4746094 C7.52278545,12.2259102 7.421875,11.9361996 7.421875,11.6054688 C7.421875,11.160154 7.58333172,10.7936212 7.90625,10.5058594 C8.22916828,10.2180975 8.6406225,10.0742188 9.140625,10.0742188 C9.58593973,10.0742188 10.0559871,10.1484368 10.5507812,10.296875 L10.5507812,11.046875 C9.9414032,10.8072905 9.48698066,10.6875 9.1875,10.6875 C8.90364441,10.6875 8.66927176,10.7630201 8.484375,10.9140625 C8.29947824,11.0651049 8.20703125,11.2552072 8.20703125,11.484375 C8.20703125,11.6770843 8.27473891,11.8476555 8.41015625,11.9960938 C8.54557359,12.144532 8.79296695,12.3216136 9.15234375,12.5273438 L9.56640625,12.7617188 C10.0664088,13.0455743 10.4153636,13.3138008 10.6132812,13.5664062 C10.8111989,13.8190117 10.9101562,14.1223941 10.9101562,14.4765625 C10.9101562,14.9791692 10.7246112,15.382811 10.3535156,15.6875 C9.98242002,15.992189 9.49088848,16.1445312 8.87890625,16.1445312 Z M12.1507813,16 L12.1507813,10.21875 L12.9710938,10.21875 L12.9710938,16 L12.1507813,16 Z M14.559375,16 L14.559375,10.21875 L16.1335938,10.21875 C16.8315139,10.21875 17.332811,10.3365874 17.6375,10.5722656 C17.942189,10.8079439 18.0945313,11.1953098 18.0945313,11.734375 C18.0945313,12.3489614 17.8862,12.8307274 17.4695313,13.1796875 C17.0528625,13.5286476 16.4747433,13.703125 15.7351563,13.703125 L15.371875,13.703125 L15.371875,16 L14.559375,16 Z M15.371875,13.0820312 L15.7039063,13.0820312 C16.1908879,13.0820312 16.5671862,12.9700532 16.8328125,12.7460938 C17.0984388,12.5221343 17.23125,12.2057312 17.23125,11.796875 C17.23125,11.4505191 17.1270844,11.2031257 16.91875,11.0546875 C16.7104156,10.9062493 16.3627629,10.8320312 15.8757813,10.8320312 L15.371875,10.8320312 L15.371875,13.0820312 Z" id="SIP" fill="#05006D"></path>
        </g>
    </g>
</svg>
