<svg xmlns="http://www.w3.org/2000/svg" width="81" height="83" viewBox="0 0 81 83">
    <g fill="none">
        <path fill="#E7ECF2" d="M31.91 65.972C17.212 63.628 6.24 51.006 6.24 36.242c0-14.766 10.965-27.386 25.67-29.73v59.46z"/>
        <g fill="#D7E2EE">
            <path d="M.022 36.241c0 18.763 14.704 36.242 38.107 36.242V0C14.734 0 .022 17.471.022 36.241zm35.488 33.64c-18.248-.68-32.87-15.51-32.87-33.64 0-18.13 14.622-32.958 32.87-33.638v67.279zM42.871 82.35c10.74 0 19.474-2.882 28.255-11.527L42.871 42.995V82.35zm2.619-33.13l21.917 21.585c-5.975 5.482-13.757 8.656-21.917 8.94V49.222zM80.978 36.241C80.978 17.584 66.402 0 42.87 0v36.777L69.274 62.78c8.118-7.994 11.704-16.77 11.704-26.539zm-35.488-.533V2.603c18.248.68 32.87 15.51 32.87 33.639.023 8.486-3.23 16.663-9.103 22.873L45.49 35.708z"/>
        </g>
    </g>
</svg>
