<?xml version="1.0" encoding="UTF-8"?>
<svg width="15px" height="18px" viewBox="0 0 15 18" version="1.1" xmlns="http://www.w3.org/2000/svg" xmlns:xlink="http://www.w3.org/1999/xlink">
    <!-- Generator: Sketch 51.3 (57544) - http://www.bohemiancoding.com/sketch -->
    <title>billing info</title>
    <desc>Created with Sketch.</desc>
    <defs></defs>
    <g id="Billing" stroke="none" stroke-width="1" fill="none" fill-rule="evenodd">
        <g id="Payments_Recharge-2" transform="translate(-39.000000, -235.000000)" fill="#626375" fill-rule="nonzero">
            <g id="billing-info" transform="translate(39.000000, 235.000000)">
                <path d="M10.275,7.65 L10.275,8.08125 C10.275,8.1375 10.3125,8.175 10.36875,8.175 L10.81875,8.175 C10.875,8.175 10.9125,8.1375 10.9125,8.08125 L10.9125,7.65 C11.25,7.59375 11.53125,7.4625 11.71875,7.25625 C11.925,7.05 12.01875,6.7875 12.01875,6.46875 C12.01875,6.375 12.01875,6.3 12,6.225 C11.98125,6.15 11.9625,6.075 11.94375,6.01875 C11.925,5.9625 11.8875,5.90625 11.85,5.85 C11.8125,5.79375 11.775,5.75625 11.71875,5.7 C11.68125,5.6625 11.625,5.625 11.56875,5.5875 C11.5125,5.55 11.4375,5.5125 11.38125,5.475 C11.325,5.4375 11.25,5.41875 11.175,5.38125 C11.1,5.34375 11.00625,5.325 10.95,5.30625 C10.875,5.2875 10.8,5.25 10.6875,5.23125 C10.4625,5.15625 10.29375,5.08125 10.2,5.025 C10.10625,4.95 10.05,4.875 10.05,4.7625 C10.05,4.65 10.0875,4.575 10.18125,4.51875 C10.25625,4.4625 10.3875,4.425 10.5375,4.425 C10.81875,4.425 11.1,4.51875 11.38125,4.70625 C11.41875,4.725 11.475,4.725 11.49375,4.6875 L11.85,4.2375 C11.8875,4.2 11.86875,4.14375 11.83125,4.10625 C11.71875,4.0125 11.5875,3.9375 11.4375,3.88125 C11.25,3.80625 11.08125,3.73125 10.89375,3.69375 L10.89375,3.1875 C10.89375,3.13125 10.85625,3.09375 10.8,3.09375 L10.35,3.09375 C10.29375,3.09375 10.25625,3.13125 10.25625,3.1875 L10.25625,3.675 C9.91875,3.7125 9.6375,3.84375 9.45,4.05 C9.2625,4.25625 9.15,4.51875 9.15,4.8375 C9.15,4.9125 9.15,4.9875 9.16875,5.04375 C9.1875,5.11875 9.1875,5.175 9.225,5.23125 C9.24375,5.2875 9.28125,5.34375 9.3,5.38125 C9.3375,5.4375 9.35625,5.475 9.4125,5.5125 C9.45,5.55 9.50625,5.5875 9.54375,5.625 C9.58125,5.6625 9.6375,5.7 9.69375,5.71875 C9.75,5.75625 9.80625,5.775 9.8625,5.8125 C9.91875,5.83125 9.975,5.86875 10.05,5.8875 C10.125,5.90625 10.18125,5.94375 10.2375,5.9625 C10.29375,5.98125 10.36875,6 10.44375,6.01875 C10.5375,6.0375 10.59375,6.075 10.66875,6.09375 C10.725,6.1125 10.78125,6.15 10.8375,6.16875 C10.89375,6.1875 10.93125,6.225 10.96875,6.24375 C11.00625,6.2625 11.025,6.3 11.0625,6.3375 C11.08125,6.375 11.1,6.39375 11.11875,6.43125 C11.1375,6.46875 11.1375,6.50625 11.1375,6.54375 C11.1375,6.65625 11.1,6.75 11.00625,6.825 C10.9125,6.9 10.8,6.91875 10.65,6.91875 C10.48125,6.91875 10.29375,6.88125 10.10625,6.80625 C9.9375,6.73125 9.7875,6.6375 9.65625,6.525 C9.61875,6.4875 9.5625,6.4875 9.525,6.525 L9.15,6.975 C9.1125,7.0125 9.13125,7.06875 9.15,7.10625 C9.46875,7.40625 9.84375,7.59375 10.275,7.65 Z" id="Shape"></path>
                <path d="M3.9375,4.66875 L7.5,4.66875 C7.74375,4.66875 7.95,4.4625 7.95,4.21875 C7.95,3.975 7.74375,3.76875 7.5,3.76875 L3.9375,3.76875 C3.69375,3.76875 3.4875,3.975 3.4875,4.21875 C3.4875,4.48125 3.675,4.66875 3.9375,4.66875 Z" id="Shape"></path>
                <path d="M3.9375,7.51875 L7.5,7.51875 C7.74375,7.51875 7.95,7.3125 7.95,7.06875 C7.95,6.825 7.74375,6.61875 7.5,6.61875 L3.9375,6.61875 C3.69375,6.61875 3.4875,6.825 3.4875,7.06875 C3.4875,7.3125 3.675,7.51875 3.9375,7.51875 Z" id="Shape"></path>
                <path d="M3.9375,10.36875 L11.0625,10.36875 C11.30625,10.36875 11.5125,10.1625 11.5125,9.91875 C11.5125,9.675 11.30625,9.46875 11.0625,9.46875 L3.9375,9.46875 C3.69375,9.46875 3.4875,9.675 3.4875,9.91875 C3.4875,10.1625 3.675,10.36875 3.9375,10.36875 Z" id="Shape"></path>
                <path d="M3.9375,13.21875 L11.0625,13.21875 C11.30625,13.21875 11.5125,13.0125 11.5125,12.76875 C11.5125,12.525 11.30625,12.31875 11.0625,12.31875 L3.9375,12.31875 C3.69375,12.31875 3.4875,12.525 3.4875,12.76875 C3.4875,13.0125 3.675,13.21875 3.9375,13.21875 Z" id="Shape"></path>
                <path d="M14.41875,0.09375 L0.58125,0.09375 C0.3375,0.09375 0.13125,0.3 0.13125,0.54375 L0.13125,17.1 C0.13125,17.34375 0.2625,17.56875 0.4875,17.68125 C0.69375,17.79375 0.95625,17.775 1.1625,17.64375 L2.8875,16.5 L4.81875,17.79375 C5.04375,17.94375 5.325,17.94375 5.55,17.79375 L7.5,16.5 L9.43125,17.79375 C9.54375,17.86875 9.675,17.90625 9.80625,17.90625 C9.9375,17.90625 10.06875,17.86875 10.18125,17.79375 L12.1125,16.5 L13.8375,17.64375 C14.04375,17.775 14.30625,17.79375 14.5125,17.68125 C14.71875,17.56875 14.86875,17.34375 14.86875,17.1 L14.86875,0.54375 C14.86875,0.3 14.6625,0.09375 14.41875,0.09375 Z M13.96875,16.66875 L12.46875,15.675 C12.24375,15.525 11.9625,15.525 11.7375,15.675 L9.7875,16.96875 L7.875,15.675 C7.65,15.525 7.36875,15.525 7.14375,15.675 L5.19375,16.96875 L3.24375,15.675 C3.13125,15.6 3,15.5625 2.8875,15.5625 C2.75625,15.5625 2.625,15.6 2.5125,15.675 L1.0125,16.66875 L1.0125,0.99375 L13.95,0.99375 L13.95,16.66875 L13.96875,16.66875 Z" id="Shape"></path>
            </g>
        </g>
    </g>
</svg>